<?xml version="1.0" encoding="utf-8" standalone="no"?>
<!DOCTYPE svg PUBLIC "-//W3C//DTD SVG 1.1//EN"
  "http://www.w3.org/Graphics/SVG/1.1/DTD/svg11.dtd">
<svg xmlns:xlink="http://www.w3.org/1999/xlink" width="240.615626pt" height="200.16pt" viewBox="0 0 240.615626 200.16" xmlns="http://www.w3.org/2000/svg" version="1.1">
 <metadata>
  <rdf:RDF xmlns:dc="http://purl.org/dc/elements/1.1/" xmlns:cc="http://creativecommons.org/ns#" xmlns:rdf="http://www.w3.org/1999/02/22-rdf-syntax-ns#">
   <cc:Work>
    <dc:type rdf:resource="http://purl.org/dc/dcmitype/StillImage"/>
    <dc:date>2026-09-20T08:27:35.324209</dc:date>
    <dc:format>image/svg+xml</dc:format>
    <dc:creator>
     <cc:Agent>
      <dc:title>Matplotlib v3.10.8, https://matplotlib.org/</dc:title>
     </cc:Agent>
    </dc:creator>
   </cc:Work>
  </rdf:RDF>
 </metadata>
 <defs>
  <style type="text/css">*{stroke-linejoin: round; stroke-linecap: butt}</style>
 </defs>
 <g id="figure_1">
  <g id="patch_1">
   <path d="M 0 200.16 
L 240.615626 200.16 
L 240.615626 0 
L 0 0 
z
" style="fill: #ffffff"/>
  </g>
  <g id="axes_1">
   <g id="patch_2">
    <path d="M 58.048219 106.201097 
L 233.415626 106.201097 
L 233.415626 7.2 
L 58.048219 7.2 
z
" style="fill: #ffffff"/>
   </g>
   <g id="matplotlib.axis_1">
    <g id="xtick_1">
     <g id="line2d_1">
      <path d="M 62.265025 106.201097 
L 62.265025 7.2 
" clip-path="url(#p4c6c2881da)" style="fill: none; stroke: #cccccc; stroke-opacity: 0.3; stroke-width: 0.8; stroke-linecap: round"/>
     </g>
    </g>
    <g id="xtick_2">
     <g id="line2d_2">
      <path d="M 99.982396 106.201097 
L 99.982396 7.2 
" clip-path="url(#p4c6c2881da)" style="fill: none; stroke: #cccccc; stroke-opacity: 0.3; stroke-width: 0.8; stroke-linecap: round"/>
     </g>
    </g>
    <g id="xtick_3">
     <g id="line2d_3">
      <path d="M 137.699767 106.201097 
L 137.699767 7.2 
" clip-path="url(#p4c6c2881da)" style="fill: none; stroke: #cccccc; stroke-opacity: 0.3; stroke-width: 0.8; stroke-linecap: round"/>
     </g>
    </g>
    <g id="xtick_4">
     <g id="line2d_4">
      <path d="M 175.417138 106.201097 
L 175.417138 7.2 
" clip-path="url(#p4c6c2881da)" style="fill: none; stroke: #cccccc; stroke-opacity: 0.3; stroke-width: 0.8; stroke-linecap: round"/>
     </g>
    </g>
    <g id="xtick_5">
     <g id="line2d_5">
      <path d="M 213.134509 106.201097 
L 213.134509 7.2 
" clip-path="url(#p4c6c2881da)" style="fill: none; stroke: #cccccc; stroke-opacity: 0.3; stroke-width: 0.8; stroke-linecap: round"/>
     </g>
    </g>
   </g>
   <g id="matplotlib.axis_2">
    <g id="ytick_1">
     <g id="line2d_6">
      <path d="M 58.048219 76.766003 
L 233.415626 76.766003 
" clip-path="url(#p4c6c2881da)" style="fill: none; stroke: #cccccc; stroke-opacity: 0.3; stroke-width: 0.8; stroke-linecap: round"/>
     </g>
     <g id="text_1">
      <!-- $\mathdefault{50000}$ -->
      <g style="fill: #262626" transform="translate(26.141543 80.196741) scale(0.1 -0.1)">
       <defs>
        <path id="CMR17-35" d="M 730 3692 
C 794 3666 1056 3584 1325 3584 
C 1920 3584 2246 3911 2432 4100 
C 2432 4157 2432 4192 2394 4192 
C 2387 4192 2374 4192 2323 4163 
C 2099 4058 1837 3973 1517 3973 
C 1325 3973 1037 3999 723 4139 
C 653 4171 640 4171 634 4171 
C 602 4171 595 4164 595 4037 
L 595 2203 
C 595 2089 595 2057 659 2057 
C 691 2057 704 2070 736 2114 
C 941 2401 1222 2522 1542 2522 
C 1766 2522 2246 2382 2246 1289 
C 2246 1085 2246 715 2054 421 
C 1894 159 1645 25 1370 25 
C 947 25 518 320 403 814 
C 429 807 480 795 506 795 
C 589 795 749 840 749 1038 
C 749 1210 627 1280 506 1280 
C 358 1280 262 1190 262 1011 
C 262 454 704 -128 1382 -128 
C 2042 -128 2669 440 2669 1264 
C 2669 2030 2170 2624 1549 2624 
C 1222 2624 947 2503 730 2274 
L 730 3692 
z
" transform="scale(0.015625)"/>
        <path id="CMR17-30" d="M 2688 2025 
C 2688 2416 2682 3080 2413 3591 
C 2176 4039 1798 4198 1466 4198 
C 1158 4198 768 4058 525 3597 
C 269 3118 243 2524 243 2025 
C 243 1661 250 1106 448 619 
C 723 -39 1216 -128 1466 -128 
C 1760 -128 2208 -7 2470 600 
C 2662 1042 2688 1559 2688 2025 
z
M 1466 -26 
C 1056 -26 813 325 723 812 
C 653 1188 653 1738 653 2096 
C 653 2588 653 2997 736 3387 
C 858 3929 1216 4096 1466 4096 
C 1728 4096 2067 3923 2189 3400 
C 2272 3036 2278 2607 2278 2096 
C 2278 1680 2278 1169 2202 792 
C 2067 95 1690 -26 1466 -26 
z
" transform="scale(0.015625)"/>
       </defs>
       <use xlink:href="#CMR17-35" transform="scale(0.996264)"/>
       <use xlink:href="#CMR17-30" transform="translate(45.690477 0) scale(0.996264)"/>
       <use xlink:href="#CMR17-30" transform="translate(91.380954 0) scale(0.996264)"/>
       <use xlink:href="#CMR17-30" transform="translate(137.071431 0) scale(0.996264)"/>
       <use xlink:href="#CMR17-30" transform="translate(182.761908 0) scale(0.996264)"/>
      </g>
     </g>
    </g>
    <g id="ytick_2">
     <g id="line2d_7">
      <path d="M 58.048219 45.286336 
L 233.415626 45.286336 
" clip-path="url(#p4c6c2881da)" style="fill: none; stroke: #cccccc; stroke-opacity: 0.3; stroke-width: 0.8; stroke-linecap: round"/>
     </g>
     <g id="text_2">
      <!-- $\mathdefault{100000}$ -->
      <g style="fill: #262626" transform="translate(21.160208 48.717074) scale(0.1 -0.1)">
       <defs>
        <path id="CMR17-31" d="M 1702 4058 
C 1702 4192 1696 4192 1606 4192 
C 1357 3916 979 3827 621 3827 
C 602 3827 570 3827 563 3808 
C 557 3795 557 3782 557 3648 
C 755 3648 1088 3686 1344 3839 
L 1344 461 
C 1344 236 1331 160 781 160 
L 589 160 
L 589 0 
C 896 0 1216 0 1523 0 
C 1830 0 2150 0 2458 0 
L 2458 160 
L 2266 160 
C 1715 160 1702 230 1702 458 
L 1702 4058 
z
" transform="scale(0.015625)"/>
       </defs>
       <use xlink:href="#CMR17-31" transform="scale(0.996264)"/>
       <use xlink:href="#CMR17-30" transform="translate(45.690477 0) scale(0.996264)"/>
       <use xlink:href="#CMR17-30" transform="translate(91.380954 0) scale(0.996264)"/>
       <use xlink:href="#CMR17-30" transform="translate(137.071431 0) scale(0.996264)"/>
       <use xlink:href="#CMR17-30" transform="translate(182.761908 0) scale(0.996264)"/>
       <use xlink:href="#CMR17-30" transform="translate(228.452386 0) scale(0.996264)"/>
      </g>
     </g>
    </g>
    <g id="ytick_3">
     <g id="line2d_8">
      <path d="M 58.048219 13.806669 
L 233.415626 13.806669 
" clip-path="url(#p4c6c2881da)" style="fill: none; stroke: #cccccc; stroke-opacity: 0.3; stroke-width: 0.8; stroke-linecap: round"/>
     </g>
     <g id="text_3">
      <!-- $\mathdefault{150000}$ -->
      <g style="fill: #262626" transform="translate(21.160208 17.237407) scale(0.1 -0.1)">
       <use xlink:href="#CMR17-31" transform="scale(0.996264)"/>
       <use xlink:href="#CMR17-35" transform="translate(45.690477 0) scale(0.996264)"/>
       <use xlink:href="#CMR17-30" transform="translate(91.380954 0) scale(0.996264)"/>
       <use xlink:href="#CMR17-30" transform="translate(137.071431 0) scale(0.996264)"/>
       <use xlink:href="#CMR17-30" transform="translate(182.761908 0) scale(0.996264)"/>
       <use xlink:href="#CMR17-30" transform="translate(228.452386 0) scale(0.996264)"/>
      </g>
     </g>
    </g>
    <g id="text_4">
     <!-- Cwnd (bytes) -->
     <g style="fill: #262626" transform="translate(14.670156 86.332167) rotate(-90) scale(0.1 -0.1)">
      <defs>
       <path id="SFRM3583-43" d="M 3501 3725 
C 3187 4096 2899 4429 2285 4429 
C 1120 4429 320 3301 320 2185 
C 320 1051 1133 -64 2285 -64 
C 3142 -64 3821 682 3821 1523 
L 3821 1548 
C 3814 1567 3802 1574 3782 1574 
C 3718 1574 3712 1211 3654 1051 
C 3475 504 2995 77 2374 77 
C 1779 77 1242 446 960 943 
C 742 1319 678 1778 678 2204 
C 678 3212 1242 4288 2374 4288 
C 3213 4288 3654 3460 3725 2785 
C 3731 2746 3744 2708 3776 2708 
C 3814 2708 3821 2734 3821 2765 
L 3821 4371 
C 3821 4393 3821 4421 3802 4429 
L 3795 4429 
C 3744 4429 3526 3827 3501 3725 
z
" transform="scale(0.015625)"/>
       <path id="SFRM3583-77" d="M 90 2752 
L 90 2612 
L 141 2612 
C 397 2612 429 2496 563 2088 
L 1216 122 
C 1235 70 1248 -32 1318 -32 
L 1325 -32 
C 1382 -19 1402 96 1421 147 
L 1792 1264 
C 1850 1443 1907 1622 1971 1801 
C 2003 1902 2048 2005 2067 2107 
L 2074 2107 
C 2093 2005 2138 1902 2170 1801 
C 2234 1622 2291 1443 2349 1264 
L 2720 147 
C 2739 96 2758 -19 2816 -32 
L 2822 -32 
C 2893 -32 2906 70 2925 122 
L 3098 638 
C 3264 1143 3430 1641 3597 2145 
C 3661 2350 3776 2612 4051 2612 
L 4051 2752 
L 3296 2752 
L 3296 2612 
C 3456 2612 3552 2464 3552 2350 
C 3552 2254 3514 2158 3482 2069 
C 3290 1501 3104 926 2912 358 
C 2835 538 2784 729 2726 914 
C 2579 1354 2426 1801 2278 2248 
C 2259 2312 2221 2389 2221 2458 
C 2221 2592 2387 2612 2490 2612 
L 2490 2752 
L 1600 2752 
L 1600 2612 
L 1645 2612 
C 1824 2612 1920 2573 1984 2357 
C 1997 2325 2016 2280 2016 2241 
L 2016 2229 
C 2010 2165 1984 2107 1965 2049 
L 1843 1698 
C 1690 1264 1536 817 1408 377 
L 1402 377 
C 1389 447 1357 517 1338 588 
L 1216 952 
C 1094 1315 973 1674 851 2038 
L 762 2318 
C 742 2363 723 2414 723 2459 
L 723 2478 
C 742 2592 896 2612 992 2612 
L 992 2752 
L 90 2752 
z
" transform="scale(0.015625)"/>
       <path id="SFRM3583-6e" d="M 301 2746 
L 301 2605 
L 365 2605 
C 570 2605 678 2560 678 2275 
L 678 361 
C 678 154 525 141 301 141 
L 301 0 
L 1318 0 
L 1318 141 
L 1229 141 
C 1082 141 941 160 941 361 
L 941 1777 
C 979 2217 1203 2740 1709 2740 
C 2112 2740 2266 2417 2266 1951 
L 2266 361 
C 2266 154 2112 141 1888 141 
L 1888 0 
L 2906 0 
L 2906 141 
L 2803 141 
C 2656 141 2528 160 2528 386 
L 2528 1885 
C 2528 2299 2451 2816 1760 2816 
C 1414 2816 1178 2629 1024 2352 
C 986 2281 947 2204 934 2126 
L 928 2816 
L 301 2746 
z
" transform="scale(0.015625)"/>
       <path id="SFRM3583-64" d="M 1882 4397 
L 1882 4256 
L 1952 4256 
C 2150 4256 2259 4198 2259 3955 
L 2253 2323 
C 2131 2617 1766 2816 1459 2816 
C 710 2816 269 2052 269 1373 
C 269 731 653 0 1338 0 
L 1395 0 
C 1741 0 2118 204 2246 507 
L 2253 0 
L 2893 0 
L 2893 160 
L 2816 160 
C 2605 160 2515 237 2515 461 
L 2515 4467 
L 1882 4397 
z
M 595 1245 
L 595 1341 
C 595 1783 659 2310 1056 2593 
C 1190 2689 1344 2740 1498 2740 
C 1862 2740 2259 2393 2259 2021 
C 2259 1951 2253 1874 2253 1804 
L 2253 770 
C 2253 424 1811 58 1440 58 
C 947 58 678 558 621 981 
C 608 1072 608 1155 595 1245 
z
" transform="scale(0.015625)"/>
       <path id="SFRM3583-28" d="M 1837 4768 
C 1747 4717 1645 4608 1574 4519 
C 845 3725 595 2618 595 1568 
C 595 551 851 -512 1523 -1293 
C 1619 -1395 1786 -1600 1869 -1600 
C 1882 -1600 1894 -1593 1894 -1581 
C 1894 -1542 1709 -1363 1619 -1254 
C 1011 -467 813 576 813 1555 
C 813 2669 1030 3783 1805 4647 
C 1830 4672 1882 4711 1894 4749 
L 1894 4755 
C 1894 4768 1882 4775 1869 4775 
C 1856 4775 1843 4768 1837 4768 
z
" transform="scale(0.015625)"/>
       <path id="SFRM3583-62" d="M 288 4365 
L 288 4224 
L 365 4224 
C 570 4224 666 4147 666 3930 
L 666 7 
L 749 20 
L 896 522 
C 1114 239 1267 -32 1722 -32 
C 2445 -32 2912 703 2912 1412 
C 2912 2062 2515 2745 1862 2816 
L 1805 2816 
C 1459 2816 1088 2629 928 2302 
L 922 4435 
L 288 4365 
z
M 2579 1244 
C 2554 941 2509 631 2317 380 
C 2157 180 1926 45 1677 45 
C 1280 45 928 445 928 754 
L 928 1799 
C 928 1870 922 1934 922 2005 
C 922 2391 1357 2740 1741 2740 
C 2458 2740 2586 1831 2586 1386 
C 2586 1341 2586 1289 2579 1244 
z
" transform="scale(0.015625)"/>
       <path id="SFRM3583-79" d="M 90 2816 
L 90 2676 
L 134 2676 
C 435 2676 442 2598 672 2024 
C 915 1424 1178 818 1395 212 
C 1421 161 1453 102 1453 44 
C 1453 32 1453 12 1446 0 
C 1389 -161 1318 -322 1254 -483 
C 1139 -772 992 -1171 627 -1171 
C 493 -1171 352 -1114 256 -1024 
C 358 -1024 448 -966 448 -851 
C 448 -755 371 -685 275 -685 
C 186 -685 109 -749 109 -864 
C 109 -1114 390 -1248 614 -1248 
C 1043 -1248 1210 -816 1350 -462 
C 1651 292 1971 1033 2253 1793 
L 2368 2083 
C 2464 2334 2573 2676 2931 2676 
L 2931 2816 
L 2189 2816 
L 2189 2676 
C 2304 2676 2394 2559 2394 2450 
C 2394 2333 2330 2211 2291 2115 
C 2138 1734 1984 1360 1837 979 
L 1683 599 
C 1658 527 1626 463 1606 392 
L 1600 392 
C 1581 463 1549 534 1523 599 
L 1382 953 
C 1235 1334 1082 1709 928 2089 
L 819 2360 
C 800 2411 774 2463 768 2515 
L 768 2527 
C 768 2656 922 2676 1018 2676 
L 1018 2816 
L 717 2816 
L 90 2816 
z
" transform="scale(0.015625)"/>
       <path id="SFRM3583-74" d="M 845 3936 
C 845 3572 762 2688 109 2688 
L 109 2612 
L 666 2612 
L 666 1136 
C 666 1048 659 945 659 849 
C 659 453 787 -32 1318 -32 
C 1811 -32 1907 511 1907 907 
L 1907 1155 
L 1824 1155 
C 1824 1059 1830 964 1830 862 
C 1830 575 1773 51 1376 51 
C 1005 51 922 505 922 849 
C 922 958 928 1060 928 1168 
L 928 2612 
L 1811 2612 
L 1811 2752 
L 928 2752 
L 928 3936 
L 845 3936 
z
" transform="scale(0.015625)"/>
       <path id="SFRM3583-65" d="M 563 1524 
L 2246 1524 
C 2259 1524 2285 1517 2310 1517 
C 2355 1517 2374 1543 2374 1581 
C 2374 2154 2099 2816 1382 2816 
C 614 2816 237 2031 237 1405 
C 237 778 589 70 1350 -26 
C 1376 -26 1402 -32 1427 -32 
C 1869 -32 2208 273 2355 686 
C 2362 705 2368 730 2368 749 
C 2368 768 2362 787 2336 787 
C 2272 787 2266 686 2246 628 
C 2118 324 1843 57 1485 57 
C 1216 57 960 210 813 425 
C 576 742 563 1149 563 1524 
z
M 570 1600 
C 582 2103 832 2740 1370 2740 
C 1818 2740 2010 2264 2061 1890 
C 2067 1793 2067 1697 2080 1600 
L 570 1600 
z
" transform="scale(0.015625)"/>
       <path id="SFRM3583-73" d="M 422 384 
C 576 141 781 -32 1126 -32 
C 1549 -32 2067 147 2067 764 
C 2067 1071 1901 1353 1600 1501 
C 1216 1694 538 1604 384 2085 
C 371 2123 365 2168 365 2213 
C 365 2592 749 2752 1094 2752 
C 1466 2752 1786 2539 1837 1937 
C 1843 1905 1837 1822 1882 1822 
C 1920 1822 1926 1854 1926 1893 
L 1926 2758 
C 1926 2784 1926 2816 1901 2816 
C 1869 2816 1766 2636 1734 2540 
C 1562 2722 1376 2816 1120 2816 
C 730 2816 192 2688 192 2108 
C 192 1424 1030 1424 1408 1289 
C 1670 1200 1894 975 1894 686 
L 1894 673 
C 1882 269 1568 45 1139 45 
C 544 45 371 604 294 1065 
C 288 1104 288 1181 237 1181 
C 198 1181 192 1155 192 1123 
L 192 26 
C 192 6 192 -19 211 -26 
L 218 -26 
C 262 -26 371 256 422 384 
z
" transform="scale(0.015625)"/>
       <path id="SFRM3583-29" d="M 333 4781 
C 333 4781 326 4781 326 4774 
C 326 4742 518 4563 608 4448 
C 1210 3661 1414 2637 1414 1658 
C 1414 557 1216 -576 422 -1453 
C 397 -1478 346 -1517 333 -1555 
L 333 -1562 
C 333 -1574 339 -1574 352 -1574 
C 448 -1574 570 -1414 659 -1318 
C 1395 -493 1632 576 1632 1632 
C 1632 2739 1318 4000 442 4749 
C 429 4762 390 4794 358 4794 
C 346 4794 339 4787 333 4781 
z
" transform="scale(0.015625)"/>
      </defs>
      <use xlink:href="#SFRM3583-43" transform="scale(0.996264)"/>
      <use xlink:href="#SFRM3583-77" transform="translate(64.418587 0) scale(0.996264)"/>
      <use xlink:href="#SFRM3583-6e" transform="translate(128.837173 0) scale(0.996264)"/>
      <use xlink:href="#SFRM3583-64" transform="translate(178.375601 0) scale(0.996264)"/>
      <use xlink:href="#SFRM3583-28" transform="translate(257.612323 0) scale(0.996264)"/>
      <use xlink:href="#SFRM3583-62" transform="translate(292.270669 0) scale(0.996264)"/>
      <use xlink:href="#SFRM3583-79" transform="translate(339.329109 0) scale(0.996264)"/>
      <use xlink:href="#SFRM3583-74" transform="translate(386.387549 0) scale(0.996264)"/>
      <use xlink:href="#SFRM3583-65" transform="translate(421.045895 0) scale(0.996264)"/>
      <use xlink:href="#SFRM3583-73" transform="translate(460.664294 0) scale(0.996264)"/>
      <use xlink:href="#SFRM3583-29" transform="translate(495.818689 0) scale(0.996264)"/>
     </g>
    </g>
   </g>
   <g id="FillBetweenPolyCollection_1"/>
   <g id="FillBetweenPolyCollection_2"/>
   <g id="FillBetweenPolyCollection_3"/>
   <g id="FillBetweenPolyCollection_4"/>
   <g id="FillBetweenPolyCollection_5"/>
   <g id="FillBetweenPolyCollection_6"/>
   <g id="FillBetweenPolyCollection_7"/>
   <g id="FillBetweenPolyCollection_8"/>
   <g id="FillBetweenPolyCollection_9"/>
   <g id="FillBetweenPolyCollection_10"/>
   <g id="line2d_9">
    <path d="M 66.331561 98.896209 
L 66.495737 101.701047 
L 67.062225 100.851096 
L 67.693113 100.001145 
L 68.347482 99.151194 
L 69.089433 98.301243 
L 69.366384 97.451292 
L 69.851346 96.601341 
L 70.096853 95.75139 
L 70.364035 94.901439 
L 70.646089 94.051488 
L 70.939096 93.201537 
L 71.243369 92.351586 
L 71.561945 91.501635 
L 71.893885 90.651684 
L 72.232519 89.801733 
L 72.578244 88.951782 
L 72.934304 88.101831 
L 73.298231 87.25188 
L 73.669005 86.401929 
L 74.455722 85.551978 
L 74.884307 84.702027 
L 75.344233 83.852076 
L 75.792084 83.002125 
L 76.234604 82.152174 
L 76.687142 81.302223 
L 77.149442 80.452272 
L 77.623318 79.602321 
L 78.103872 78.75237 
L 78.596835 77.902419 
L 79.101177 77.052468 
L 79.616178 76.202517 
L 80.139483 75.352566 
L 80.672962 74.502615 
L 81.217323 73.652664 
L 81.771639 72.802713 
L 82.337308 71.952762 
L 82.910855 71.102811 
L 83.490111 70.25286 
L 84.082812 69.402909 
L 84.68314 68.552958 
L 85.287573 67.703007 
L 85.903399 66.853056 
L 86.530171 66.003105 
L 87.167587 65.153154 
L 87.890041 64.303203 
L 88.853705 63.453252 
L 89.616335 62.603301 
L 90.353868 61.75335 
L 91.102037 60.903399 
L 91.857826 60.053448 
L 92.623345 59.203497 
L 93.398776 58.353546 
L 94.860551 57.503595 
L 95.635658 56.653644 
L 96.477758 55.803693 
L 97.334712 54.953742 
L 98.16417 54.103791 
L 99.004852 70.346669 
L 99.936185 69.496718 
L 100.923105 68.646767 
L 103.414609 67.796816 
L 105.04013 66.946865 
L 106.689782 66.096914 
L 108.387478 65.246963 
L 109.261201 64.397012 
L 111.125398 63.547061 
L 113.017048 62.69711 
L 114.942395 61.847159 
L 116.890505 60.997208 
L 118.858326 60.147257 
L 120.843293 59.297306 
L 123.7448 58.447355 
L 125.71809 57.597404 
L 128.683995 56.747453 
L 129.655429 55.897502 
L 131.746201 55.047551 
L 133.862696 54.1976 
L 136.917358 53.347649 
L 138.005187 52.497698 
L 140.087232 69.222215 
L 192.066416 41.448335 
L 192.069531 38.048531 
L 192.49272 26.999168 
L 192.98804 23.599364 
L 192.991132 22.749413 
L 193.49877 20.19956 
L 193.502293 19.349609 
L 194.030834 17.649707 
L 194.5737 16.799756 
L 195.683587 15.949805 
L 196.270658 14.249903 
L 196.851181 13.399952 
L 197.43405 11.70005 
" clip-path="url(#p4c6c2881da)" style="fill: none; stroke: #0173b2; stroke-opacity: 0.5; stroke-width: 1.5; stroke-linecap: round"/>
   </g>
   <g id="line2d_10">
    <path d="M 66.493109 98.896209 
L 66.727948 101.701047 
L 67.245125 100.851096 
L 67.835715 100.001145 
L 68.474262 99.151194 
L 69.212432 98.301243 
L 69.589017 97.451292 
L 69.885933 96.601341 
L 70.379015 95.75139 
L 70.623202 94.901439 
L 70.892512 94.051488 
L 71.17592 93.201537 
L 71.470701 92.351586 
L 71.779302 91.501635 
L 72.099641 90.651684 
L 72.427865 89.801733 
L 72.763603 88.951782 
L 73.112559 88.101831 
L 73.465372 87.25188 
L 73.830672 86.401929 
L 74.215503 85.551978 
L 75.4723 84.702027 
L 76.312264 83.852076 
L 77.473657 83.002125 
L 77.904054 82.152174 
L 78.34449 81.302223 
L 78.810572 80.452272 
L 79.672022 79.602321 
L 80.113639 78.75237 
L 80.602502 77.902419 
L 81.525146 77.052468 
L 81.995704 76.202517 
L 82.514052 75.352566 
L 83.496224 74.502615 
L 83.993697 73.652664 
L 84.536127 72.802713 
L 85.08981 71.952762 
L 85.66079 71.102811 
L 86.73033 70.25286 
L 87.276093 69.402909 
L 87.883131 68.552958 
L 89.016553 67.703007 
L 89.586682 66.853056 
L 90.220416 66.003105 
L 91.404938 65.153154 
L 92.078284 64.303203 
L 93.022636 63.453252 
L 93.74306 62.603301 
L 95.112737 61.75335 
L 95.802361 60.903399 
L 96.547732 60.053448 
L 97.959357 59.203497 
L 98.672019 58.353546 
L 99.446342 57.503595 
L 100.928868 56.653644 
L 101.66398 55.803693 
L 102.457327 54.953742 
L 103.967455 54.103791 
L 104.728117 53.25384 
L 105.555485 52.403889 
L 107.119096 51.553938 
L 107.900743 50.703987 
L 108.760843 49.854036 
L 110.399504 49.004085 
L 111.195299 48.154134 
L 112.072798 47.304183 
L 113.744469 46.454232 
L 114.561925 45.604281 
L 115.474686 64.397012 
L 122.019615 45.604281 
L 129.399072 64.397012 
L 130.517995 63.547061 
L 131.710279 62.69711 
L 133.514701 61.847159 
L 137.345661 60.997208 
L 141.233598 60.147257 
L 142.167544 59.297306 
L 145.148873 58.447355 
L 147.127239 57.597404 
L 150.048155 56.747453 
L 153.096881 55.897502 
L 155.105919 55.047551 
L 159.253608 54.1976 
L 162.374735 53.347649 
L 163.408983 52.497698 
L 164.450986 51.647747 
L 165.496029 50.797796 
L 166.554914 49.947845 
L 167.593877 49.097894 
L 169.68796 48.247943 
L 171.788667 47.397992 
L 173.910669 46.548041 
L 176.036533 45.69809 
L 190.980759 44.848139 
L 194.226437 43.998188 
L 195.773867 43.148237 
L 196.180853 42.298286 
L 196.568067 41.448335 
L 196.943875 40.598384 
L 197.336837 39.748433 
L 197.741341 38.898482 
L 198.143929 38.048531 
L 198.559612 37.19858 
L 198.970414 36.348629 
L 199.394207 35.498678 
L 199.809935 34.648727 
L 200.243979 33.798776 
L 200.689263 32.948825 
L 201.11599 32.098874 
L 201.572898 31.248923 
" clip-path="url(#p4c6c2881da)" style="fill: none; stroke: #de8f05; stroke-opacity: 0.5; stroke-width: 1.5; stroke-linecap: round"/>
   </g>
   <g id="line2d_11">
    <path d="M 66.417244 98.896209 
L 66.582435 101.701047 
L 67.320951 100.851096 
L 68.005624 100.001145 
L 68.713149 99.151194 
L 69.368873 98.301243 
L 69.861849 97.451292 
L 70.098214 96.601341 
L 70.365928 95.75139 
L 70.642385 94.901439 
L 70.931401 94.051488 
L 71.233077 93.201537 
L 71.549103 92.351586 
L 71.878763 91.501635 
L 72.223251 90.651684 
L 72.577648 89.801733 
L 73.306421 88.951782 
L 73.714023 88.101831 
L 74.529583 87.25188 
L 74.897412 86.401929 
L 75.3035 85.551978 
L 75.736134 84.702027 
L 76.568554 83.852076 
L 76.993055 83.002125 
L 77.462289 82.152174 
L 78.336301 81.302223 
L 78.782299 80.452272 
L 79.272188 79.602321 
L 79.764482 78.75237 
L 80.280119 77.902419 
L 81.279888 77.052468 
L 81.782301 76.202517 
L 82.337091 75.352566 
L 83.397151 74.502615 
L 83.918973 73.652664 
L 84.498712 72.802713 
L 85.607669 71.952762 
L 86.153428 71.102811 
L 86.758301 70.25286 
L 87.912309 69.402909 
L 88.485478 68.552958 
L 89.127563 67.703007 
L 90.347554 66.853056 
L 91.286453 66.003105 
L 91.963457 78.676189 
L 93.332379 66.003105 
L 97.9104 78.676189 
L 129.299633 76.976287 
L 130.259103 76.126336 
L 132.209295 75.276385 
L 136.148784 74.426434 
L 138.146326 73.576483 
L 141.060905 72.726532 
L 143.041995 71.876581 
L 145.934986 71.02663 
L 148.017294 70.176679 
L 150.966083 69.326728 
L 154.019576 68.476777 
L 156.070382 67.626826 
L 157.146542 66.776875 
L 160.159722 65.926924 
L 162.375075 65.076973 
L 163.533322 64.227022 
L 164.715498 63.377071 
L 165.923472 62.52712 
L 168.211883 61.677169 
L 169.341006 60.827218 
L 170.561178 59.977267 
L 172.8806 59.127316 
L 174.025925 58.277365 
L 175.258899 57.427414 
L 177.593521 56.577463 
L 178.742083 55.727512 
L 180.002937 54.877561 
L 182.378928 54.02761 
L 183.527007 53.177659 
L 184.791821 52.327708 
L 187.176622 51.477757 
L 188.335134 50.627806 
L 189.618483 67.913291 
L 213.207794 50.627806 
L 221.631509 49.777855 
L 222.024939 48.927904 
L 222.43071 48.077953 
L 222.830212 47.228002 
" clip-path="url(#p4c6c2881da)" style="fill: none; stroke: #029e73; stroke-opacity: 0.5; stroke-width: 1.5; stroke-linecap: round"/>
   </g>
   <g id="line2d_12">
    <path d="M 66.116369 98.896209 
L 66.280474 101.701047 
L 66.726892 100.851096 
L 67.421623 100.001145 
L 68.064189 99.151194 
L 68.82437 98.301243 
L 69.291753 97.451292 
L 69.536912 96.601341 
L 69.782215 95.75139 
L 70.037268 94.901439 
L 70.306206 94.051488 
L 70.5882 93.201537 
L 70.882615 92.351586 
L 71.188591 91.501635 
L 71.508489 90.651684 
L 71.833723 89.801733 
L 72.167796 88.951782 
L 72.520635 88.101831 
L 73.190068 87.25188 
L 73.712229 86.401929 
L 74.100849 85.551978 
L 74.8634 84.702027 
L 75.261543 83.852076 
L 75.678567 83.002125 
L 76.114328 82.152174 
L 76.947134 81.302223 
L 77.379904 80.452272 
L 77.85105 79.602321 
L 78.744061 78.75237 
L 79.195418 77.902419 
L 79.697906 77.052468 
L 80.649161 76.202517 
L 81.127026 75.352566 
L 81.667135 74.502615 
L 82.687971 73.652664 
L 83.204691 72.802713 
L 83.781918 71.952762 
L 84.856791 71.102811 
L 85.387383 70.25286 
L 85.973026 69.402909 
L 87.088675 68.552958 
L 87.649729 67.703007 
L 88.270602 66.853056 
L 89.429936 66.003105 
L 90.010165 65.153154 
L 90.664139 64.303203 
L 91.57453 63.453252 
L 93.210597 62.603301 
L 93.890905 61.75335 
L 94.644838 60.903399 
L 96.07293 75.106395 
L 102.192777 60.903399 
L 119.792284 75.106395 
L 131.210886 73.406493 
L 132.972725 71.706591 
L 135.642277 70.006689 
L 141.023369 69.156738 
L 150.203664 68.306787 
L 153.014672 67.456836 
L 155.906455 66.606885 
L 157.836453 65.756934 
L 160.737349 64.906983 
L 163.952543 64.057032 
L 167.159757 63.207081 
L 170.418365 62.35713 
L 172.638929 61.507179 
L 174.80927 60.657228 
L 177.024841 59.807277 
L 179.212667 58.957326 
L 180.27942 58.107375 
L 181.449881 57.257424 
L 183.672513 56.407473 
L 184.7375 55.557522 
L 185.921072 54.707571 
L 188.134953 70.769126 
L 222.720349 69.919175 
L 223.636293 68.219273 
L 224.246047 67.369322 
L 224.842155 66.519371 
L 225.44438 54.707571 
" clip-path="url(#p4c6c2881da)" style="fill: none; stroke: #d55e00; stroke-opacity: 0.5; stroke-width: 1.5; stroke-linecap: round"/>
   </g>
   <g id="line2d_13">
    <path d="M 66.239041 98.896209 
L 66.351506 101.701047 
L 66.879311 100.851096 
L 67.712304 100.001145 
L 68.507872 99.151194 
L 69.285694 98.301243 
L 69.528415 97.451292 
L 69.796279 96.601341 
L 70.077598 95.75139 
L 70.372098 94.901439 
L 70.678994 94.051488 
L 71.004495 93.201537 
L 71.34118 92.351586 
L 71.689385 91.501635 
L 72.053913 90.651684 
L 72.420402 89.801733 
L 72.798714 88.951782 
L 73.639558 88.101831 
L 74.007205 87.25188 
L 74.411017 86.401929 
L 75.185541 85.551978 
L 75.594751 84.702027 
L 76.024355 83.852076 
L 76.470602 83.002125 
L 76.92269 82.152174 
L 77.386553 81.302223 
L 77.858967 80.452272 
L 78.345411 79.602321 
L 78.837983 78.75237 
L 79.342138 77.902419 
L 79.857448 77.052468 
L 80.383525 76.202517 
L 80.918736 75.352566 
L 81.465473 74.502615 
L 82.026404 73.652664 
L 82.588408 72.802713 
L 83.163499 71.952762 
L 83.751764 71.102811 
L 84.343632 70.25286 
L 84.946638 69.402909 
L 85.557937 68.552958 
L 86.175349 67.703007 
L 86.808586 66.853056 
L 87.44601 66.003105 
L 88.471024 65.153154 
L 89.16353 64.303203 
L 89.888745 63.453252 
L 90.626949 62.603301 
L 91.375609 61.75335 
L 92.134339 60.903399 
L 92.900424 60.053448 
L 93.682705 74.511429 
L 96.194343 73.661478 
L 97.661661 72.811527 
L 98.417246 71.111625 
L 99.226842 70.261674 
L 100.853139 60.053448 
L 117.173559 59.203497 
L 118.16791 58.353546 
L 119.174963 57.503595 
L 121.068345 56.653644 
L 122.017669 55.803693 
L 123.047798 54.953742 
L 124.070957 54.103791 
L 125.102505 53.25384 
L 126.143542 52.403889 
L 127.179759 51.553938 
L 128.22794 50.703987 
L 130.232852 49.854036 
L 131.225098 49.004085 
L 132.288313 48.154134 
L 134.309956 47.304183 
L 135.318941 46.454232 
L 136.406439 45.604281 
L 138.461952 64.397012 
L 175.809263 43.054428 
L 177.848581 33.704967 
L 181.025606 26.905359 
L 182.125686 20.955701 
L 184.410061 16.705946 
L 185.484304 44.168178 
L 193.959013 43.318227 
L 194.409441 42.468276 
L 194.831008 41.618325 
L 195.754797 40.768374 
L 196.211532 39.918423 
L 197.530984 60.416723 
L 199.68663 59.566772 
L 200.375816 58.716821 
" clip-path="url(#p4c6c2881da)" style="fill: none; stroke: #cc78bc; stroke-opacity: 0.5; stroke-width: 1.5; stroke-linecap: round"/>
   </g>
   <g id="line2d_14">
    <path d="M 66.019465 98.896209 
L 66.263466 101.701047 
L 67.134901 100.851096 
L 67.920719 100.001145 
L 68.66514 99.151194 
L 69.427421 98.301243 
L 69.663627 97.451292 
L 69.927498 96.601341 
L 70.20248 95.75139 
L 70.491206 94.901439 
L 70.797185 94.051488 
L 71.120946 93.201537 
L 71.446882 92.351586 
L 71.785066 91.501635 
L 72.137705 90.651684 
L 72.493818 89.801733 
L 72.859422 88.951782 
L 73.250552 88.101831 
L 74.059114 87.25188 
L 74.426914 86.401929 
L 74.832873 85.551978 
L 75.256955 84.702027 
L 76.049273 83.852076 
L 76.46307 83.002125 
L 76.912404 82.152174 
L 77.372354 81.302223 
L 77.842583 80.452272 
L 78.324695 79.602321 
L 78.815065 78.75237 
L 79.314476 77.902419 
L 79.824491 77.052468 
L 80.796833 76.202517 
L 81.336976 75.352566 
L 81.927374 74.502615 
L 82.556175 73.652664 
L 83.132868 72.802713 
L 83.717542 71.952762 
L 84.312481 71.102811 
L 85.443093 70.25286 
L 86.042785 69.402909 
L 86.757615 68.552958 
L 87.719928 67.703007 
L 88.381393 66.853056 
L 89.047976 66.003105 
L 89.720088 65.153154 
L 90.433655 64.303203 
L 91.182209 63.453252 
L 91.94671 62.603301 
L 92.716416 61.75335 
L 93.501398 60.903399 
L 94.994425 60.053448 
L 95.763791 59.203497 
L 96.617441 58.353546 
L 97.495237 57.503595 
L 99.081177 56.653644 
L 99.8793 55.803693 
L 100.735695 54.953742 
L 102.36722 54.103791 
L 103.188297 53.25384 
L 104.073433 52.403889 
L 105.758932 51.553938 
L 106.601629 50.703987 
L 107.519481 49.854036 
L 109.254782 49.004085 
L 110.113161 48.154134 
L 111.0442 47.304183 
L 112.818266 46.454232 
L 113.694984 45.604281 
L 114.651104 44.75433 
L 116.45183 43.904379 
L 117.344434 43.054428 
L 118.314774 42.204477 
L 120.151662 41.354526 
L 121.066739 40.504575 
L 122.066083 39.654624 
L 123.953784 38.804673 
L 124.877762 37.954722 
L 125.882802 37.104771 
L 127.776802 36.25482 
L 128.71346 35.404869 
L 130.699235 34.554918 
L 131.643783 33.704967 
L 133.631602 32.855016 
L 134.576407 32.005065 
L 136.563358 31.155114 
L 137.506292 30.305163 
L 138.573068 29.455212 
L 140.583019 28.605261 
L 141.536491 27.75531 
L 143.559123 26.905359 
L 144.522379 26.055408 
L 145.604227 25.205457 
L 147.632086 24.355506 
L 148.597568 23.505555 
L 150.632609 22.655604 
L 151.595616 21.805653 
L 153.627813 20.955701 
L 155.57378 47.143007 
L 156.912543 45.443105 
L 158.225259 44.593154 
L 160.137047 42.893252 
L 163.129143 40.343399 
L 170.130898 39.493448 
L 172.179796 38.643497 
L 173.816405 37.793546 
L 175.095997 58.929624 
L 175.505321 36.943595 
L 175.916592 36.093644 
L 177.222344 35.243693 
L 178.105482 34.393742 
L 178.553398 33.543791 
L 179.431737 32.69384 
" clip-path="url(#p4c6c2881da)" style="fill: none; stroke: #ca9161; stroke-opacity: 0.5; stroke-width: 1.5; stroke-linecap: round"/>
   </g>
   <g id="line2d_15">
    <path d="M 66.217421 98.896209 
L 66.332353 101.701047 
L 66.733941 100.851096 
L 67.418485 100.001145 
L 68.238476 99.151194 
L 68.999039 98.301243 
L 69.246737 97.451292 
L 69.516035 96.601341 
L 69.799651 95.75139 
L 70.093284 94.901439 
L 70.402438 94.051488 
L 70.724692 93.201537 
L 71.058753 92.351586 
L 71.409639 91.501635 
L 71.770074 90.651684 
L 72.136514 89.801733 
L 72.514743 88.951782 
L 73.33183 88.101831 
L 73.698899 87.25188 
L 74.101777 86.401929 
L 74.515823 85.551978 
L 74.962453 84.702027 
L 75.394523 83.852076 
L 75.843138 83.002125 
L 76.298256 82.152174 
L 76.76359 81.302223 
L 77.245661 80.452272 
L 78.154127 79.602321 
L 78.628946 78.75237 
L 79.140233 77.902419 
L 79.660571 77.052468 
L 80.191013 76.202517 
L 80.732765 75.352566 
L 81.28195 74.502615 
L 81.838402 73.652664 
L 82.410612 72.802713 
L 83.508469 71.952762 
L 84.097608 71.102811 
L 84.741372 70.25286 
L 85.423257 69.402909 
L 86.601035 68.552958 
L 87.592711 67.703007 
L 88.255349 66.853056 
L 88.922162 66.003105 
L 89.594202 65.153154 
L 90.307008 64.303203 
L 91.055471 63.453252 
L 91.819226 62.603301 
L 93.289781 61.75335 
L 94.059026 60.903399 
L 94.895032 60.053448 
L 95.768068 59.203497 
L 97.334184 58.353546 
L 98.12385 57.503595 
L 98.972944 56.653644 
L 99.829249 55.803693 
L 101.457583 54.953742 
L 102.292321 54.103791 
L 103.17401 53.25384 
L 104.076979 52.403889 
L 105.773106 51.553938 
L 106.624787 50.703987 
L 107.547158 49.854036 
L 109.292775 49.004085 
L 110.16113 48.154134 
L 111.11237 47.304183 
L 112.902097 46.454232 
L 113.788674 45.604281 
L 114.747615 44.75433 
L 116.580242 43.904379 
L 117.48478 43.054428 
L 118.466767 42.204477 
L 120.331476 41.354526 
L 121.256842 40.504575 
L 122.269523 39.654624 
L 124.176506 38.804673 
L 125.110131 37.954722 
L 126.137658 37.104771 
L 128.074754 36.25482 
L 129.020978 35.404869 
L 130.048889 34.554918 
L 132.002068 33.704967 
L 132.960097 32.855016 
L 134.006362 32.005065 
L 136.003398 31.155114 
L 136.969287 30.305163 
L 138.045681 29.455212 
L 140.067422 28.605261 
L 141.04124 27.75531 
L 142.141433 26.905359 
L 144.198078 26.055408 
L 145.18625 25.205457 
L 146.29413 24.355506 
L 148.368978 23.505555 
L 149.357377 22.655604 
L 150.465905 21.805653 
L 152.525025 20.955701 
L 153.458115 20.10575 
L 155.428584 46.548041 
L 172.987913 20.10575 
" clip-path="url(#p4c6c2881da)" style="fill: none; stroke: #fbafe4; stroke-opacity: 0.5; stroke-width: 1.5; stroke-linecap: round"/>
   </g>
   <g id="line2d_16">
    <path d="M 66.184943 98.896209 
L 66.439478 101.701047 
L 67.071365 100.851096 
L 67.921545 100.001145 
L 68.64809 99.151194 
L 69.510849 98.301243 
L 69.758124 97.451292 
L 70.226114 96.601341 
L 70.4744 95.75139 
L 70.748623 94.901439 
L 71.039062 94.051488 
L 71.356576 93.201537 
L 71.670927 92.351586 
L 71.998089 91.501635 
L 72.339564 90.651684 
L 72.6886 89.801733 
L 73.045729 88.951782 
L 73.436956 88.101831 
L 73.944247 87.25188 
L 74.323578 86.401929 
L 74.715993 85.551978 
L 75.129035 84.702027 
L 75.540479 83.852076 
L 75.968342 83.002125 
L 76.403155 82.152174 
L 76.848782 81.302223 
L 77.304457 80.452272 
L 77.765701 79.602321 
L 78.242092 78.75237 
L 78.725862 77.902419 
L 79.218629 77.052468 
L 79.722334 76.202517 
L 80.238559 75.352566 
L 80.763281 74.502615 
L 81.752406 73.652664 
L 82.317013 72.802713 
L 82.919422 71.952762 
L 83.553542 71.102811 
L 84.140584 70.25286 
L 84.741169 69.402909 
L 85.347161 68.552958 
L 86.487875 67.703007 
L 87.080543 66.853056 
L 87.720517 66.003105 
L 88.617934 65.153154 
L 90.207924 64.303203 
L 90.890843 63.453252 
L 91.626399 62.603301 
L 92.371476 61.75335 
L 93.128908 60.903399 
L 93.8982 60.053448 
L 95.354565 59.203497 
L 96.118259 58.353546 
L 96.950033 57.503595 
L 97.826064 56.653644 
L 98.660168 55.803693 
L 99.488804 54.953742 
L 100.335227 54.103791 
L 101.947743 53.25384 
L 102.759602 52.403889 
L 103.623948 51.553938 
L 105.288861 50.703987 
L 106.12243 49.854036 
L 107.015622 49.004085 
L 107.918553 48.154134 
L 108.834671 47.304183 
L 110.569511 46.454232 
L 111.445935 45.604281 
L 112.429362 44.75433 
L 115.121372 43.904379 
L 116.912374 43.054428 
L 119.656486 42.204477 
L 120.567564 41.354526 
L 122.49416 40.504575 
L 123.411982 39.654624 
L 125.341399 38.804673 
L 126.266508 37.954722 
L 127.310947 37.104771 
L 130.171395 36.25482 
L 132.073799 35.404869 
L 135.003978 34.554918 
L 135.953272 33.704967 
L 137.021398 32.855016 
L 139.005912 55.472527 
L 156.151075 53.772625 
L 158.269788 51.222772 
L 162.529701 50.372821 
L 172.103969 49.52287 
L 175.33668 48.672919 
L 177.497002 47.822968 
L 180.63551 65.950219 
L 185.77199 46.123066 
L 185.774577 44.423164 
L 186.194892 41.873311 
L 186.638969 41.02336 
L 187.541832 40.173409 
L 188.9318 39.323458 
L 191.738327 38.473506 
" clip-path="url(#p4c6c2881da)" style="fill: none; stroke: #949494; stroke-opacity: 0.5; stroke-width: 1.5; stroke-linecap: round"/>
   </g>
   <g id="line2d_17">
    <path d="M 66.165731 98.896209 
L 66.324516 101.701047 
L 66.822302 100.851096 
L 67.279701 100.001145 
L 67.978007 99.151194 
L 68.606866 98.301243 
L 68.888115 97.451292 
L 69.378748 96.601341 
L 69.625842 95.75139 
L 69.895347 94.901439 
L 70.177566 94.051488 
L 70.4728 93.201537 
L 70.783368 92.351586 
L 71.103988 91.501635 
L 71.439205 90.651684 
L 71.782295 89.801733 
L 72.13077 88.951782 
L 72.490069 88.101831 
L 73.297979 87.25188 
L 73.701709 86.401929 
L 74.143632 85.551978 
L 74.964087 84.702027 
L 75.364427 83.852076 
L 75.7997 83.002125 
L 76.24765 82.152174 
L 77.09056 81.302223 
L 77.52884 80.452272 
L 78.014019 79.602321 
L 78.916928 78.75237 
L 79.380652 77.902419 
L 79.887984 77.052468 
L 80.408514 76.202517 
L 81.416289 75.352566 
L 81.932789 74.502615 
L 82.485647 73.652664 
L 83.549662 72.802713 
L 84.083136 71.952762 
L 84.66991 71.102811 
L 85.764505 70.25286 
L 86.322657 69.402909 
L 86.941789 68.552958 
L 88.089611 67.703007 
L 88.672111 66.853056 
L 89.324282 66.003105 
L 90.317161 65.153154 
L 90.998322 64.303203 
L 91.714583 63.453252 
L 92.464758 62.603301 
L 93.865401 61.75335 
L 94.57279 60.903399 
L 95.342549 60.053448 
L 96.804421 59.203497 
L 98.975855 58.353546 
L 99.724945 57.503595 
L 100.539444 56.653644 
L 102.108351 55.803693 
L 102.882538 54.953742 
L 103.747171 54.103791 
L 105.363956 53.25384 
L 106.160698 52.403889 
L 107.02819 51.553938 
L 108.689874 50.703987 
L 109.509759 49.854036 
L 110.403042 49.004085 
L 112.106985 48.154134 
L 112.940938 47.304183 
L 113.862819 65.586944 
L 116.002246 47.304183 
L 143.26323 46.454232 
L 144.233479 45.604281 
L 145.290592 44.75433 
L 147.291766 43.904379 
L 148.267126 43.054428 
L 150.318529 42.204477 
L 151.297913 41.354526 
L 152.403711 40.504575 
L 154.484186 39.654624 
L 155.474018 38.804673 
L 157.537973 37.954722 
L 158.530113 37.104771 
L 160.614722 36.25482 
L 161.604509 35.404869 
L 162.732077 34.554918 
L 165.789576 33.704967 
L 167.785458 32.855016 
L 170.852039 32.005065 
L 171.850757 31.155114 
L 173.948348 30.305163 
L 174.947059 29.455212 
L 178.041483 53.092664 
L 182.105265 52.242713 
L 182.92942 51.392762 
L 183.743089 50.542811 
L 184.138526 49.69286 
L 185.331194 48.842909 
L 185.733986 47.992958 
L 186.968023 47.143007 
L 187.383932 46.293056 
L 188.249056 45.443105 
" clip-path="url(#p4c6c2881da)" style="fill: none; stroke: #ece133; stroke-opacity: 0.5; stroke-width: 1.5; stroke-linecap: round"/>
   </g>
   <g id="line2d_18">
    <path d="M 66.483948 98.896209 
L 66.651976 101.701047 
L 67.143616 100.851096 
L 67.734421 100.001145 
L 68.706537 99.151194 
L 69.466649 98.301243 
L 69.707042 97.451292 
L 69.975225 96.601341 
L 70.260987 95.75139 
L 70.553097 94.901439 
L 70.858166 94.051488 
L 71.178583 93.201537 
L 71.511844 92.351586 
L 71.855082 91.501635 
L 72.212293 90.651684 
L 72.578659 89.801733 
L 72.956429 88.951782 
L 73.813843 88.101831 
L 74.230891 87.25188 
L 74.681812 86.401929 
L 75.53179 85.551978 
L 75.948865 84.702027 
L 76.387978 83.852076 
L 76.844087 83.002125 
L 77.301626 82.152174 
L 77.7812 81.302223 
L 78.26203 80.452272 
L 78.757966 79.602321 
L 79.70415 78.75237 
L 80.198295 77.902419 
L 80.726831 77.052468 
L 81.265611 76.202517 
L 81.809416 75.352566 
L 82.377149 74.502615 
L 83.483013 73.652664 
L 84.110323 72.802713 
L 84.765919 71.952762 
L 85.438854 71.102811 
L 86.079309 70.25286 
L 86.731876 69.402909 
L 87.767429 68.552958 
L 88.466845 67.703007 
L 89.176528 66.853056 
L 89.872051 66.003105 
L 90.576416 65.153154 
L 91.316634 64.303203 
L 92.093386 63.453252 
L 92.884583 62.603301 
L 93.687163 61.75335 
L 94.499075 60.903399 
L 95.313717 60.053448 
L 96.143085 59.203497 
L 96.983707 58.353546 
L 97.832114 57.503595 
L 98.687317 56.653644 
L 99.552577 55.803693 
L 100.425553 54.953742 
L 101.304948 54.103791 
L 102.195538 53.25384 
L 103.089878 52.403889 
L 103.993495 51.553938 
L 104.902416 50.703987 
L 105.826544 49.854036 
L 107.570369 49.004085 
L 108.477827 48.154134 
L 109.451968 47.304183 
L 110.463412 46.454232 
L 112.284415 45.604281 
L 113.210851 44.75433 
L 114.19317 43.904379 
L 115.17739 43.054428 
L 116.171665 42.204477 
L 118.056998 41.354526 
L 119.002603 40.504575 
L 120.018316 39.654624 
L 121.945206 38.804673 
L 122.902503 37.954722 
L 123.940561 37.104771 
L 125.881919 36.25482 
L 126.850637 35.404869 
L 127.897022 34.554918 
L 128.953116 33.704967 
L 130.923178 32.855016 
L 131.913289 32.005065 
L 132.976926 31.155114 
L 134.984645 30.305163 
L 135.980753 29.455212 
L 138.132121 53.092664 
L 146.999483 50.542811 
L 148.092804 48.842909 
L 150.161209 47.992958 
L 154.21766 66.069212 
L 180.221449 65.219261 
L 180.852415 64.36931 
L 181.454935 63.519359 
L 181.758575 62.669408 
L 182.360439 61.819457 
L 182.963351 60.969506 
L 183.58224 60.119555 
L 184.195117 59.269604 
L 184.821482 58.419653 
L 185.466223 57.569702 
L 186.126835 56.719751 
L 186.448602 55.8698 
L 186.767608 55.019849 
L 187.089857 54.169898 
" clip-path="url(#p4c6c2881da)" style="fill: none; stroke: #56b4e9; stroke-opacity: 0.5; stroke-width: 1.5; stroke-linecap: round"/>
   </g>
   <g id="patch_3">
    <path d="M 58.048219 106.201097 
L 58.048219 7.2 
" style="fill: none; stroke: #cccccc; stroke-width: 0.8; stroke-linejoin: miter; stroke-linecap: square"/>
   </g>
   <g id="patch_4">
    <path d="M 233.415626 106.201097 
L 233.415626 7.2 
" style="fill: none; stroke: #cccccc; stroke-width: 0.8; stroke-linejoin: miter; stroke-linecap: square"/>
   </g>
   <g id="patch_5">
    <path d="M 58.048219 106.201097 
L 233.415626 106.201097 
" style="fill: none; stroke: #cccccc; stroke-width: 0.8; stroke-linejoin: miter; stroke-linecap: square"/>
   </g>
   <g id="patch_6">
    <path d="M 58.048219 7.2 
L 233.415626 7.2 
" style="fill: none; stroke: #cccccc; stroke-width: 0.8; stroke-linejoin: miter; stroke-linecap: square"/>
   </g>
  </g>
  <g id="axes_2">
   <g id="patch_7">
    <path d="M 58.048219 163.201609 
L 233.415626 163.201609 
L 233.415626 117.001097 
L 58.048219 117.001097 
z
" style="fill: #ffffff"/>
   </g>
   <g id="matplotlib.axis_3">
    <g id="xtick_6">
     <g id="line2d_19">
      <path d="M 62.265025 163.201609 
L 62.265025 117.001097 
" clip-path="url(#p9bee4b2206)" style="fill: none; stroke: #cccccc; stroke-opacity: 0.3; stroke-width: 0.8; stroke-linecap: round"/>
     </g>
     <g id="text_5">
      <!-- $\mathdefault{5000}$ -->
      <g style="fill: #262626" transform="translate(52.302355 177.063085) scale(0.1 -0.1)">
       <use xlink:href="#CMR17-35" transform="scale(0.996264)"/>
       <use xlink:href="#CMR17-30" transform="translate(45.690477 0) scale(0.996264)"/>
       <use xlink:href="#CMR17-30" transform="translate(91.380954 0) scale(0.996264)"/>
       <use xlink:href="#CMR17-30" transform="translate(137.071431 0) scale(0.996264)"/>
      </g>
     </g>
    </g>
    <g id="xtick_7">
     <g id="line2d_20">
      <path d="M 99.982396 163.201609 
L 99.982396 117.001097 
" clip-path="url(#p9bee4b2206)" style="fill: none; stroke: #cccccc; stroke-opacity: 0.3; stroke-width: 0.8; stroke-linecap: round"/>
     </g>
     <g id="text_6">
      <!-- $\mathdefault{10000}$ -->
      <g style="fill: #262626" transform="translate(87.529058 177.063085) scale(0.1 -0.1)">
       <use xlink:href="#CMR17-31" transform="scale(0.996264)"/>
       <use xlink:href="#CMR17-30" transform="translate(45.690477 0) scale(0.996264)"/>
       <use xlink:href="#CMR17-30" transform="translate(91.380954 0) scale(0.996264)"/>
       <use xlink:href="#CMR17-30" transform="translate(137.071431 0) scale(0.996264)"/>
       <use xlink:href="#CMR17-30" transform="translate(182.761908 0) scale(0.996264)"/>
      </g>
     </g>
    </g>
    <g id="xtick_8">
     <g id="line2d_21">
      <path d="M 137.699767 163.201609 
L 137.699767 117.001097 
" clip-path="url(#p9bee4b2206)" style="fill: none; stroke: #cccccc; stroke-opacity: 0.3; stroke-width: 0.8; stroke-linecap: round"/>
     </g>
     <g id="text_7">
      <!-- $\mathdefault{15000}$ -->
      <g style="fill: #262626" transform="translate(125.246429 177.063085) scale(0.1 -0.1)">
       <use xlink:href="#CMR17-31" transform="scale(0.996264)"/>
       <use xlink:href="#CMR17-35" transform="translate(45.690477 0) scale(0.996264)"/>
       <use xlink:href="#CMR17-30" transform="translate(91.380954 0) scale(0.996264)"/>
       <use xlink:href="#CMR17-30" transform="translate(137.071431 0) scale(0.996264)"/>
       <use xlink:href="#CMR17-30" transform="translate(182.761908 0) scale(0.996264)"/>
      </g>
     </g>
    </g>
    <g id="xtick_9">
     <g id="line2d_22">
      <path d="M 175.417138 163.201609 
L 175.417138 117.001097 
" clip-path="url(#p9bee4b2206)" style="fill: none; stroke: #cccccc; stroke-opacity: 0.3; stroke-width: 0.8; stroke-linecap: round"/>
     </g>
     <g id="text_8">
      <!-- $\mathdefault{20000}$ -->
      <g style="fill: #262626" transform="translate(162.9638 177.063085) scale(0.1 -0.1)">
       <defs>
        <path id="CMR17-32" d="M 2669 989 
L 2554 989 
C 2490 536 2438 459 2413 420 
C 2381 369 1920 369 1830 369 
L 602 369 
C 832 619 1280 1072 1824 1597 
C 2214 1967 2669 2402 2669 3035 
C 2669 3790 2067 4224 1395 4224 
C 691 4224 262 3604 262 3030 
C 262 2780 448 2748 525 2748 
C 589 2748 781 2787 781 3010 
C 781 3207 614 3264 525 3264 
C 486 3264 448 3258 422 3245 
C 544 3790 915 4058 1306 4058 
C 1862 4058 2227 3617 2227 3035 
C 2227 2479 1901 2000 1536 1584 
L 262 146 
L 262 0 
L 2515 0 
L 2669 989 
z
" transform="scale(0.015625)"/>
       </defs>
       <use xlink:href="#CMR17-32" transform="scale(0.996264)"/>
       <use xlink:href="#CMR17-30" transform="translate(45.690477 0) scale(0.996264)"/>
       <use xlink:href="#CMR17-30" transform="translate(91.380954 0) scale(0.996264)"/>
       <use xlink:href="#CMR17-30" transform="translate(137.071431 0) scale(0.996264)"/>
       <use xlink:href="#CMR17-30" transform="translate(182.761908 0) scale(0.996264)"/>
      </g>
     </g>
    </g>
    <g id="xtick_10">
     <g id="line2d_23">
      <path d="M 213.134509 163.201609 
L 213.134509 117.001097 
" clip-path="url(#p9bee4b2206)" style="fill: none; stroke: #cccccc; stroke-opacity: 0.3; stroke-width: 0.8; stroke-linecap: round"/>
     </g>
     <g id="text_9">
      <!-- $\mathdefault{25000}$ -->
      <g style="fill: #262626" transform="translate(200.681171 177.063085) scale(0.1 -0.1)">
       <use xlink:href="#CMR17-32" transform="scale(0.996264)"/>
       <use xlink:href="#CMR17-35" transform="translate(45.690477 0) scale(0.996264)"/>
       <use xlink:href="#CMR17-30" transform="translate(91.380954 0) scale(0.996264)"/>
       <use xlink:href="#CMR17-30" transform="translate(137.071431 0) scale(0.996264)"/>
       <use xlink:href="#CMR17-30" transform="translate(182.761908 0) scale(0.996264)"/>
      </g>
     </g>
    </g>
    <g id="text_10">
     <!-- Time (ms) -->
     <g style="fill: #262626" transform="translate(122.740443 190.469948) scale(0.1 -0.1)">
      <defs>
       <path id="SFRM3583-54" d="M 301 4365 
L 205 2974 
L 288 2974 
C 307 3340 320 3839 576 4045 
C 787 4224 1075 4224 1331 4224 
L 1715 4224 
C 1830 4224 1920 4192 1920 4025 
C 1920 3986 1914 3941 1914 3903 
L 1914 538 
C 1914 500 1920 448 1920 404 
C 1920 167 1722 141 1523 141 
L 1338 141 
L 1338 0 
L 2803 0 
L 2803 141 
L 2605 141 
C 2400 141 2221 167 2221 404 
C 2221 448 2227 500 2227 539 
L 2227 3903 
C 2227 3940 2221 3983 2221 4020 
C 2221 4180 2310 4211 2426 4211 
L 2810 4211 
C 3200 4211 3661 4211 3776 3631 
C 3821 3419 3840 3193 3853 2974 
L 3936 2974 
L 3840 4365 
L 301 4365 
z
" transform="scale(0.015625)"/>
       <path id="SFRM3583-69" d="M 326 2735 
L 326 2593 
L 358 2593 
C 563 2593 678 2561 678 2251 
L 678 360 
C 678 154 531 141 307 141 
L 307 0 
L 1274 0 
L 1274 141 
L 1190 141 
C 1056 141 934 154 934 373 
L 934 2805 
L 326 2735 
z
M 698 4160 
C 595 4160 531 4045 531 3962 
C 531 3866 608 3751 730 3751 
C 858 3751 934 3857 934 3952 
C 934 4046 858 4160 736 4160 
C 723 4160 710 4160 698 4160 
z
" transform="scale(0.015625)"/>
       <path id="SFRM3583-6d" d="M 301 2746 
L 301 2605 
L 365 2605 
C 570 2605 678 2560 678 2275 
L 678 361 
C 678 154 525 141 301 141 
L 301 0 
L 1318 0 
L 1318 141 
L 1229 141 
C 1082 141 941 160 941 361 
L 941 1259 
C 941 1376 934 1485 934 1603 
C 934 2067 1088 2740 1715 2740 
C 2112 2740 2272 2430 2272 1951 
L 2272 361 
C 2272 154 2118 141 1894 141 
L 1894 0 
L 2912 0 
L 2912 141 
L 2822 141 
C 2675 141 2534 160 2534 361 
L 2534 1259 
C 2534 1376 2528 1485 2528 1603 
C 2528 2067 2682 2740 3309 2740 
C 3706 2740 3866 2430 3866 1951 
L 3866 361 
C 3866 154 3712 141 3488 141 
L 3488 0 
L 4506 0 
L 4506 141 
L 4403 141 
C 4256 141 4128 160 4128 386 
L 4128 1860 
C 4128 2292 4058 2816 3354 2816 
C 2957 2816 2611 2526 2534 2146 
L 2528 2146 
C 2470 2487 2323 2816 1760 2816 
C 1357 2816 998 2494 934 2120 
L 928 2816 
L 301 2746 
z
" transform="scale(0.015625)"/>
      </defs>
      <use xlink:href="#SFRM3583-54" transform="scale(0.996264)"/>
      <use xlink:href="#SFRM3583-69" transform="translate(64.418587 0) scale(0.996264)"/>
      <use xlink:href="#SFRM3583-6d" transform="translate(89.156918 0) scale(0.996264)"/>
      <use xlink:href="#SFRM3583-65" transform="translate(163.495534 0) scale(0.996264)"/>
      <use xlink:href="#SFRM3583-28" transform="translate(232.812226 0) scale(0.996264)"/>
      <use xlink:href="#SFRM3583-6d" transform="translate(267.470572 0) scale(0.996264)"/>
      <use xlink:href="#SFRM3583-73" transform="translate(341.809188 0) scale(0.996264)"/>
      <use xlink:href="#SFRM3583-29" transform="translate(376.963584 0) scale(0.996264)"/>
     </g>
    </g>
   </g>
   <g id="matplotlib.axis_4">
    <g id="text_11">
     <!-- Run -->
     <g style="fill: #262626" transform="translate(52.111512 149.300711) rotate(-90) scale(0.1 -0.1)">
      <defs>
       <path id="SFRM3583-52" d="M 467 4352 
L 467 4237 
L 576 4237 
C 742 4237 877 4218 877 3968 
L 877 410 
C 877 160 768 141 467 141 
L 467 0 
L 1594 0 
L 1594 141 
L 1485 141 
C 1325 141 1184 160 1184 399 
L 1184 2164 
L 1658 2164 
C 1747 2164 1837 2164 1926 2164 
C 2368 2164 2874 1934 2931 1378 
L 2931 861 
C 2931 532 2970 -76 3712 -76 
C 4019 -76 4179 216 4205 495 
L 4205 527 
C 4205 554 4198 586 4166 586 
C 4122 586 4115 528 4115 482 
L 4115 457 
C 4090 242 3955 0 3725 0 
C 3347 0 3309 474 3290 772 
C 3238 1410 3251 1990 2381 2196 
C 2810 2331 3206 2440 3437 2929 
C 3475 3026 3501 3135 3501 3245 
C 3501 3972 2739 4352 2086 4352 
L 467 4352 
z
M 1184 2240 
L 1184 4059 
C 1184 4173 1235 4237 1357 4237 
L 1907 4237 
C 2483 4237 3142 3988 3142 3235 
C 3142 2693 2758 2374 2259 2265 
C 2099 2240 1933 2240 1773 2240 
L 1184 2240 
z
" transform="scale(0.015625)"/>
       <path id="SFRM3583-75" d="M 301 2732 
L 301 2592 
L 358 2592 
C 570 2592 685 2560 685 2181 
C 685 2098 678 2015 678 1930 
L 678 904 
C 678 443 762 -32 1459 -32 
C 1856 -32 2170 248 2266 620 
L 2272 0 
L 2906 0 
L 2906 160 
L 2842 160 
C 2675 160 2528 179 2528 447 
L 2528 2803 
L 1888 2732 
L 1888 2592 
L 1958 2592 
C 2176 2592 2266 2521 2266 2258 
L 2266 1077 
C 2266 609 2042 45 1491 45 
C 1318 45 1133 102 1030 250 
C 947 366 941 526 941 673 
L 941 2803 
L 301 2732 
z
" transform="scale(0.015625)"/>
      </defs>
      <use xlink:href="#SFRM3583-52" transform="scale(0.996264)"/>
      <use xlink:href="#SFRM3583-75" transform="translate(65.629789 0) scale(0.996264)"/>
      <use xlink:href="#SFRM3583-6e" transform="translate(115.168217 0) scale(0.996264)"/>
     </g>
    </g>
   </g>
   <g id="patch_8">
    <path d="M 58.048219 163.201609 
L 58.048219 117.001097 
" style="fill: none; stroke: #cccccc; stroke-width: 0.8; stroke-linejoin: miter; stroke-linecap: square"/>
   </g>
   <g id="patch_9">
    <path d="M 233.415626 163.201609 
L 233.415626 117.001097 
" style="fill: none; stroke: #cccccc; stroke-width: 0.8; stroke-linejoin: miter; stroke-linecap: square"/>
   </g>
   <g id="patch_10">
    <path d="M 58.048219 163.201609 
L 233.415626 163.201609 
" style="fill: none; stroke: #cccccc; stroke-width: 0.8; stroke-linejoin: miter; stroke-linecap: square"/>
   </g>
   <g id="patch_11">
    <path d="M 58.048219 117.001097 
L 233.415626 117.001097 
" style="fill: none; stroke: #cccccc; stroke-width: 0.8; stroke-linejoin: miter; stroke-linecap: square"/>
   </g>
   <g id="line2d_24">
    <defs>
     <path id="m3390652c84" d="M 0 4.5 
L 0 -4.5 
" style="stroke: #0173b2; stroke-opacity: 0.5; stroke-width: 1.6"/>
    </defs>
    <g clip-path="url(#p9bee4b2206)">
     <use xlink:href="#m3390652c84" x="66.640995" y="119.311122" style="fill: #0173b2; fill-opacity: 0.5; stroke: #0173b2; stroke-opacity: 0.5; stroke-width: 1.6"/>
    </g>
   </g>
   <g id="line2d_25">
    <g clip-path="url(#p9bee4b2206)">
     <use xlink:href="#m3390652c84" x="74.457701" y="119.311122" style="fill: #0173b2; fill-opacity: 0.5; stroke: #0173b2; stroke-opacity: 0.5; stroke-width: 1.6"/>
    </g>
   </g>
   <g id="line2d_26">
    <g clip-path="url(#p9bee4b2206)">
     <use xlink:href="#m3390652c84" x="84.08989" y="119.311122" style="fill: #0173b2; fill-opacity: 0.5; stroke: #0173b2; stroke-opacity: 0.5; stroke-width: 1.6"/>
    </g>
   </g>
   <g id="line2d_27">
    <g clip-path="url(#p9bee4b2206)">
     <use xlink:href="#m3390652c84" x="95.606178" y="119.311122" style="fill: #0173b2; fill-opacity: 0.5; stroke: #0173b2; stroke-opacity: 0.5; stroke-width: 1.6"/>
    </g>
   </g>
   <g id="line2d_28">
    <g clip-path="url(#p9bee4b2206)">
     <use xlink:href="#m3390652c84" x="100.037573" y="119.311122" style="fill: #0173b2; fill-opacity: 0.5; stroke: #0173b2; stroke-opacity: 0.5; stroke-width: 1.6"/>
    </g>
   </g>
   <g id="line2d_29">
    <defs>
     <path id="mbf24e9badd" d="M 0 3 
L 0 -3 
" style="stroke: #0173b2; stroke-opacity: 0.5; stroke-width: 1.1"/>
    </defs>
    <g clip-path="url(#p9bee4b2206)">
     <use xlink:href="#mbf24e9badd" x="140.281491" y="119.311122" style="fill: #0173b2; fill-opacity: 0.5; stroke: #0173b2; stroke-opacity: 0.5; stroke-width: 1.1"/>
    </g>
   </g>
   <g id="line2d_30">
    <g clip-path="url(#p9bee4b2206)">
     <use xlink:href="#m3390652c84" x="194.057787" y="119.311122" style="fill: #0173b2; fill-opacity: 0.5; stroke: #0173b2; stroke-opacity: 0.5; stroke-width: 1.6"/>
    </g>
   </g>
   <g id="line2d_31">
    <defs>
     <path id="m0ef34e541d" d="M 0 4.5 
L 0 -4.5 
" style="stroke: #de8f05; stroke-opacity: 0.5; stroke-width: 1.6"/>
    </defs>
    <g clip-path="url(#p9bee4b2206)">
     <use xlink:href="#m0ef34e541d" x="66.825387" y="123.931174" style="fill: #de8f05; fill-opacity: 0.5; stroke: #de8f05; stroke-opacity: 0.5; stroke-width: 1.6"/>
    </g>
   </g>
   <g id="line2d_32">
    <g clip-path="url(#p9bee4b2206)">
     <use xlink:href="#m0ef34e541d" x="74.225044" y="123.931174" style="fill: #de8f05; fill-opacity: 0.5; stroke: #de8f05; stroke-opacity: 0.5; stroke-width: 1.6"/>
    </g>
   </g>
   <g id="line2d_33">
    <g clip-path="url(#p9bee4b2206)">
     <use xlink:href="#m0ef34e541d" x="87.282014" y="123.931174" style="fill: #de8f05; fill-opacity: 0.5; stroke: #de8f05; stroke-opacity: 0.5; stroke-width: 1.6"/>
    </g>
   </g>
   <g id="line2d_34">
    <defs>
     <path id="m6ad690e9dc" d="M 0 3 
L 0 -3 
" style="stroke: #de8f05; stroke-opacity: 0.5; stroke-width: 1.1"/>
    </defs>
    <g clip-path="url(#p9bee4b2206)">
     <use xlink:href="#m6ad690e9dc" x="116.44951" y="123.931174" style="fill: #de8f05; fill-opacity: 0.5; stroke: #de8f05; stroke-opacity: 0.5; stroke-width: 1.1"/>
    </g>
   </g>
   <g id="line2d_35">
    <g clip-path="url(#p9bee4b2206)">
     <use xlink:href="#m0ef34e541d" x="130.604485" y="123.931174" style="fill: #de8f05; fill-opacity: 0.5; stroke: #de8f05; stroke-opacity: 0.5; stroke-width: 1.6"/>
    </g>
   </g>
   <g id="line2d_36">
    <defs>
     <path id="mb7add115ff" d="M 0 4.5 
L 0 -4.5 
" style="stroke: #029e73; stroke-opacity: 0.5; stroke-width: 1.6"/>
    </defs>
    <g clip-path="url(#p9bee4b2206)">
     <use xlink:href="#mb7add115ff" x="66.691651" y="128.551225" style="fill: #029e73; fill-opacity: 0.5; stroke: #029e73; stroke-opacity: 0.5; stroke-width: 1.6"/>
    </g>
   </g>
   <g id="line2d_37">
    <g clip-path="url(#p9bee4b2206)">
     <use xlink:href="#mb7add115ff" x="75.314956" y="128.551225" style="fill: #029e73; fill-opacity: 0.5; stroke: #029e73; stroke-opacity: 0.5; stroke-width: 1.6"/>
    </g>
   </g>
   <g id="line2d_38">
    <g clip-path="url(#p9bee4b2206)">
     <use xlink:href="#mb7add115ff" x="87.921301" y="128.551225" style="fill: #029e73; fill-opacity: 0.5; stroke: #029e73; stroke-opacity: 0.5; stroke-width: 1.6"/>
    </g>
   </g>
   <g id="line2d_39">
    <defs>
     <path id="m48894e3952" d="M 0 3 
L 0 -3 
" style="stroke: #029e73; stroke-opacity: 0.5; stroke-width: 1.1"/>
    </defs>
    <g clip-path="url(#p9bee4b2206)">
     <use xlink:href="#m48894e3952" x="93.339417" y="128.551225" style="fill: #029e73; fill-opacity: 0.5; stroke: #029e73; stroke-opacity: 0.5; stroke-width: 1.1"/>
    </g>
   </g>
   <g id="line2d_40">
    <g clip-path="url(#p9bee4b2206)">
     <use xlink:href="#m48894e3952" x="98.581603" y="128.551225" style="fill: #029e73; fill-opacity: 0.5; stroke: #029e73; stroke-opacity: 0.5; stroke-width: 1.1"/>
    </g>
   </g>
   <g id="line2d_41">
    <g clip-path="url(#p9bee4b2206)">
     <use xlink:href="#mb7add115ff" x="145.9432" y="128.551225" style="fill: #029e73; fill-opacity: 0.5; stroke: #029e73; stroke-opacity: 0.5; stroke-width: 1.6"/>
    </g>
   </g>
   <g id="line2d_42">
    <g clip-path="url(#p9bee4b2206)">
     <use xlink:href="#mb7add115ff" x="146.979823" y="128.551225" style="fill: #029e73; fill-opacity: 0.5; stroke: #029e73; stroke-opacity: 0.5; stroke-width: 1.6"/>
    </g>
   </g>
   <g id="line2d_43">
    <g clip-path="url(#p9bee4b2206)">
     <use xlink:href="#mb7add115ff" x="182.393992" y="128.551225" style="fill: #029e73; fill-opacity: 0.5; stroke: #029e73; stroke-opacity: 0.5; stroke-width: 1.6"/>
    </g>
   </g>
   <g id="line2d_44">
    <g clip-path="url(#p9bee4b2206)">
     <use xlink:href="#m48894e3952" x="192.128553" y="128.551225" style="fill: #029e73; fill-opacity: 0.5; stroke: #029e73; stroke-opacity: 0.5; stroke-width: 1.1"/>
    </g>
   </g>
   <g id="line2d_45">
    <defs>
     <path id="m9a38a10a49" d="M 0 4.5 
L 0 -4.5 
" style="stroke: #d55e00; stroke-opacity: 0.5; stroke-width: 1.6"/>
    </defs>
    <g clip-path="url(#p9bee4b2206)">
     <use xlink:href="#m9a38a10a49" x="66.597072" y="133.171276" style="fill: #d55e00; fill-opacity: 0.5; stroke: #d55e00; stroke-opacity: 0.5; stroke-width: 1.6"/>
    </g>
   </g>
   <g id="line2d_46">
    <g clip-path="url(#p9bee4b2206)">
     <use xlink:href="#m9a38a10a49" x="74.112207" y="133.171276" style="fill: #d55e00; fill-opacity: 0.5; stroke: #d55e00; stroke-opacity: 0.5; stroke-width: 1.6"/>
    </g>
   </g>
   <g id="line2d_47">
    <g clip-path="url(#p9bee4b2206)">
     <use xlink:href="#m9a38a10a49" x="85.981833" y="133.171276" style="fill: #d55e00; fill-opacity: 0.5; stroke: #d55e00; stroke-opacity: 0.5; stroke-width: 1.6"/>
    </g>
   </g>
   <g id="line2d_48">
    <defs>
     <path id="m37a6493ca4" d="M 0 3 
L 0 -3 
" style="stroke: #d55e00; stroke-opacity: 0.5; stroke-width: 1.1"/>
    </defs>
    <g clip-path="url(#p9bee4b2206)">
     <use xlink:href="#m37a6493ca4" x="96.271126" y="133.171276" style="fill: #d55e00; fill-opacity: 0.5; stroke: #d55e00; stroke-opacity: 0.5; stroke-width: 1.1"/>
    </g>
   </g>
   <g id="line2d_49">
    <g clip-path="url(#p9bee4b2206)">
     <use xlink:href="#m37a6493ca4" x="120.726686" y="133.171276" style="fill: #d55e00; fill-opacity: 0.5; stroke: #d55e00; stroke-opacity: 0.5; stroke-width: 1.1"/>
    </g>
   </g>
   <g id="line2d_50">
    <g clip-path="url(#p9bee4b2206)">
     <use xlink:href="#m9a38a10a49" x="181.468079" y="133.171276" style="fill: #d55e00; fill-opacity: 0.5; stroke: #d55e00; stroke-opacity: 0.5; stroke-width: 1.6"/>
    </g>
   </g>
   <g id="line2d_51">
    <g clip-path="url(#p9bee4b2206)">
     <use xlink:href="#m37a6493ca4" x="188.517301" y="133.171276" style="fill: #d55e00; fill-opacity: 0.5; stroke: #d55e00; stroke-opacity: 0.5; stroke-width: 1.1"/>
    </g>
   </g>
   <g id="line2d_52">
    <defs>
     <path id="meb45dbf0f3" d="M 0 4.5 
L 0 -4.5 
" style="stroke: #cc78bc; stroke-opacity: 0.5; stroke-width: 1.6"/>
    </defs>
    <g clip-path="url(#p9bee4b2206)">
     <use xlink:href="#meb45dbf0f3" x="66.665673" y="137.791327" style="fill: #cc78bc; fill-opacity: 0.5; stroke: #cc78bc; stroke-opacity: 0.5; stroke-width: 1.6"/>
    </g>
   </g>
   <g id="line2d_53">
    <g clip-path="url(#p9bee4b2206)">
     <use xlink:href="#meb45dbf0f3" x="75.194819" y="137.791327" style="fill: #cc78bc; fill-opacity: 0.5; stroke: #cc78bc; stroke-opacity: 0.5; stroke-width: 1.6"/>
    </g>
   </g>
   <g id="line2d_54">
    <g clip-path="url(#p9bee4b2206)">
     <use xlink:href="#meb45dbf0f3" x="84.954622" y="137.791327" style="fill: #cc78bc; fill-opacity: 0.5; stroke: #cc78bc; stroke-opacity: 0.5; stroke-width: 1.6"/>
    </g>
   </g>
   <g id="line2d_55">
    <defs>
     <path id="m30f80674bc" d="M 0 3 
L 0 -3 
" style="stroke: #cc78bc; stroke-opacity: 0.5; stroke-width: 1.1"/>
    </defs>
    <g clip-path="url(#p9bee4b2206)">
     <use xlink:href="#m30f80674bc" x="95.256051" y="137.791327" style="fill: #cc78bc; fill-opacity: 0.5; stroke: #cc78bc; stroke-opacity: 0.5; stroke-width: 1.1"/>
    </g>
   </g>
   <g id="line2d_56">
    <g clip-path="url(#p9bee4b2206)">
     <use xlink:href="#meb45dbf0f3" x="98.384439" y="137.791327" style="fill: #cc78bc; fill-opacity: 0.5; stroke: #cc78bc; stroke-opacity: 0.5; stroke-width: 1.6"/>
    </g>
   </g>
   <g id="line2d_57">
    <g clip-path="url(#p9bee4b2206)">
     <use xlink:href="#m30f80674bc" x="138.706338" y="137.791327" style="fill: #cc78bc; fill-opacity: 0.5; stroke: #cc78bc; stroke-opacity: 0.5; stroke-width: 1.1"/>
    </g>
   </g>
   <g id="line2d_58">
    <g clip-path="url(#p9bee4b2206)">
     <use xlink:href="#meb45dbf0f3" x="186.953253" y="137.791327" style="fill: #cc78bc; fill-opacity: 0.5; stroke: #cc78bc; stroke-opacity: 0.5; stroke-width: 1.6"/>
    </g>
   </g>
   <g id="line2d_59">
    <g clip-path="url(#p9bee4b2206)">
     <use xlink:href="#m30f80674bc" x="197.918326" y="137.791327" style="fill: #cc78bc; fill-opacity: 0.5; stroke: #cc78bc; stroke-opacity: 0.5; stroke-width: 1.1"/>
    </g>
   </g>
   <g id="line2d_60">
    <defs>
     <path id="mebcd924986" d="M 0 4.5 
L 0 -4.5 
" style="stroke: #ca9161; stroke-opacity: 0.5; stroke-width: 1.6"/>
    </defs>
    <g clip-path="url(#p9bee4b2206)">
     <use xlink:href="#mebcd924986" x="66.407284" y="142.411378" style="fill: #ca9161; fill-opacity: 0.5; stroke: #ca9161; stroke-opacity: 0.5; stroke-width: 1.6"/>
    </g>
   </g>
   <g id="line2d_61">
    <g clip-path="url(#p9bee4b2206)">
     <use xlink:href="#mebcd924986" x="74.840329" y="142.411378" style="fill: #ca9161; fill-opacity: 0.5; stroke: #ca9161; stroke-opacity: 0.5; stroke-width: 1.6"/>
    </g>
   </g>
   <g id="line2d_62">
    <g clip-path="url(#p9bee4b2206)">
     <use xlink:href="#mebcd924986" x="81.297972" y="142.411378" style="fill: #ca9161; fill-opacity: 0.5; stroke: #ca9161; stroke-opacity: 0.5; stroke-width: 1.6"/>
    </g>
   </g>
   <g id="line2d_63">
    <g clip-path="url(#p9bee4b2206)">
     <use xlink:href="#mebcd924986" x="86.014386" y="142.411378" style="fill: #ca9161; fill-opacity: 0.5; stroke: #ca9161; stroke-opacity: 0.5; stroke-width: 1.6"/>
    </g>
   </g>
   <g id="line2d_64">
    <g clip-path="url(#p9bee4b2206)">
     <use xlink:href="#mebcd924986" x="95.737163" y="142.411378" style="fill: #ca9161; fill-opacity: 0.5; stroke: #ca9161; stroke-opacity: 0.5; stroke-width: 1.6"/>
    </g>
   </g>
   <g id="line2d_65">
    <g clip-path="url(#p9bee4b2206)">
     <use xlink:href="#mebcd924986" x="127.796145" y="142.411378" style="fill: #ca9161; fill-opacity: 0.5; stroke: #ca9161; stroke-opacity: 0.5; stroke-width: 1.6"/>
    </g>
   </g>
   <g id="line2d_66">
    <g clip-path="url(#p9bee4b2206)">
     <use xlink:href="#mebcd924986" x="157.089408" y="142.411378" style="fill: #ca9161; fill-opacity: 0.5; stroke: #ca9161; stroke-opacity: 0.5; stroke-width: 1.6"/>
    </g>
   </g>
   <g id="line2d_67">
    <g clip-path="url(#p9bee4b2206)">
     <use xlink:href="#mebcd924986" x="170.147146" y="142.411378" style="fill: #ca9161; fill-opacity: 0.5; stroke: #ca9161; stroke-opacity: 0.5; stroke-width: 1.6"/>
    </g>
   </g>
   <g id="line2d_68">
    <defs>
     <path id="mf0f266f835" d="M 0 3 
L 0 -3 
" style="stroke: #ca9161; stroke-opacity: 0.5; stroke-width: 1.1"/>
    </defs>
    <g clip-path="url(#p9bee4b2206)">
     <use xlink:href="#mf0f266f835" x="175.463885" y="142.411378" style="fill: #ca9161; fill-opacity: 0.5; stroke: #ca9161; stroke-opacity: 0.5; stroke-width: 1.1"/>
    </g>
   </g>
   <g id="line2d_69">
    <defs>
     <path id="m5ae5d038c7" d="M 0 4.5 
L 0 -4.5 
" style="stroke: #fbafe4; stroke-opacity: 0.5; stroke-width: 1.6"/>
    </defs>
    <g clip-path="url(#p9bee4b2206)">
     <use xlink:href="#m5ae5d038c7" x="66.556998" y="147.031429" style="fill: #fbafe4; fill-opacity: 0.5; stroke: #fbafe4; stroke-opacity: 0.5; stroke-width: 1.6"/>
    </g>
   </g>
   <g id="line2d_70">
    <g clip-path="url(#p9bee4b2206)">
     <use xlink:href="#m5ae5d038c7" x="74.52388" y="147.031429" style="fill: #fbafe4; fill-opacity: 0.5; stroke: #fbafe4; stroke-opacity: 0.5; stroke-width: 1.6"/>
    </g>
   </g>
   <g id="line2d_71">
    <g clip-path="url(#p9bee4b2206)">
     <use xlink:href="#m5ae5d038c7" x="84.057209" y="147.031429" style="fill: #fbafe4; fill-opacity: 0.5; stroke: #fbafe4; stroke-opacity: 0.5; stroke-width: 1.6"/>
    </g>
   </g>
   <g id="line2d_72">
    <g clip-path="url(#p9bee4b2206)">
     <use xlink:href="#m5ae5d038c7" x="85.428145" y="147.031429" style="fill: #fbafe4; fill-opacity: 0.5; stroke: #fbafe4; stroke-opacity: 0.5; stroke-width: 1.6"/>
    </g>
   </g>
   <g id="line2d_73">
    <g clip-path="url(#p9bee4b2206)">
     <use xlink:href="#m5ae5d038c7" x="86.607379" y="147.031429" style="fill: #fbafe4; fill-opacity: 0.5; stroke: #fbafe4; stroke-opacity: 0.5; stroke-width: 1.6"/>
    </g>
   </g>
   <g id="line2d_74">
    <g clip-path="url(#p9bee4b2206)">
     <use xlink:href="#m5ae5d038c7" x="94.030708" y="147.031429" style="fill: #fbafe4; fill-opacity: 0.5; stroke: #fbafe4; stroke-opacity: 0.5; stroke-width: 1.6"/>
    </g>
   </g>
   <g id="line2d_75">
    <g clip-path="url(#p9bee4b2206)">
     <use xlink:href="#m5ae5d038c7" x="128.091448" y="147.031429" style="fill: #fbafe4; fill-opacity: 0.5; stroke: #fbafe4; stroke-opacity: 0.5; stroke-width: 1.6"/>
    </g>
   </g>
   <g id="line2d_76">
    <defs>
     <path id="me373eae97c" d="M 0 3 
L 0 -3 
" style="stroke: #fbafe4; stroke-opacity: 0.5; stroke-width: 1.1"/>
    </defs>
    <g clip-path="url(#p9bee4b2206)">
     <use xlink:href="#me373eae97c" x="157.581321" y="147.031429" style="fill: #fbafe4; fill-opacity: 0.5; stroke: #fbafe4; stroke-opacity: 0.5; stroke-width: 1.1"/>
    </g>
   </g>
   <g id="line2d_77">
    <g clip-path="url(#p9bee4b2206)">
     <use xlink:href="#m5ae5d038c7" x="178.045258" y="147.031429" style="fill: #fbafe4; fill-opacity: 0.5; stroke: #fbafe4; stroke-opacity: 0.5; stroke-width: 1.6"/>
    </g>
   </g>
   <g id="line2d_78">
    <defs>
     <path id="m01078ac04d" d="M 0 4.5 
L 0 -4.5 
" style="stroke: #949494; stroke-opacity: 0.5; stroke-width: 1.6"/>
    </defs>
    <g clip-path="url(#p9bee4b2206)">
     <use xlink:href="#m01078ac04d" x="66.517692" y="151.651481" style="fill: #949494; fill-opacity: 0.5; stroke: #949494; stroke-opacity: 0.5; stroke-width: 1.6"/>
    </g>
   </g>
   <g id="line2d_79">
    <g clip-path="url(#p9bee4b2206)">
     <use xlink:href="#m01078ac04d" x="74.723529" y="151.651481" style="fill: #949494; fill-opacity: 0.5; stroke: #949494; stroke-opacity: 0.5; stroke-width: 1.6"/>
    </g>
   </g>
   <g id="line2d_80">
    <g clip-path="url(#p9bee4b2206)">
     <use xlink:href="#m01078ac04d" x="82.277591" y="151.651481" style="fill: #949494; fill-opacity: 0.5; stroke: #949494; stroke-opacity: 0.5; stroke-width: 1.6"/>
    </g>
   </g>
   <g id="line2d_81">
    <g clip-path="url(#p9bee4b2206)">
     <use xlink:href="#m01078ac04d" x="84.747166" y="151.651481" style="fill: #949494; fill-opacity: 0.5; stroke: #949494; stroke-opacity: 0.5; stroke-width: 1.6"/>
    </g>
   </g>
   <g id="line2d_82">
    <g clip-path="url(#p9bee4b2206)">
     <use xlink:href="#m01078ac04d" x="96.091377" y="151.651481" style="fill: #949494; fill-opacity: 0.5; stroke: #949494; stroke-opacity: 0.5; stroke-width: 1.6"/>
    </g>
   </g>
   <g id="line2d_83">
    <g clip-path="url(#p9bee4b2206)">
     <use xlink:href="#m01078ac04d" x="130.185435" y="151.651481" style="fill: #949494; fill-opacity: 0.5; stroke: #949494; stroke-opacity: 0.5; stroke-width: 1.6"/>
    </g>
   </g>
   <g id="line2d_84">
    <g clip-path="url(#p9bee4b2206)">
     <use xlink:href="#m01078ac04d" x="139.514716" y="151.651481" style="fill: #949494; fill-opacity: 0.5; stroke: #949494; stroke-opacity: 0.5; stroke-width: 1.6"/>
    </g>
   </g>
   <g id="line2d_85">
    <defs>
     <path id="ma2418898e8" d="M 0 3 
L 0 -3 
" style="stroke: #949494; stroke-opacity: 0.5; stroke-width: 1.1"/>
    </defs>
    <g clip-path="url(#p9bee4b2206)">
     <use xlink:href="#ma2418898e8" x="181.908871" y="151.651481" style="fill: #949494; fill-opacity: 0.5; stroke: #949494; stroke-opacity: 0.5; stroke-width: 1.1"/>
    </g>
   </g>
   <g id="line2d_86">
    <defs>
     <path id="m18c322351d" d="M 0 4.5 
L 0 -4.5 
" style="stroke: #ece133; stroke-opacity: 0.5; stroke-width: 1.6"/>
    </defs>
    <g clip-path="url(#p9bee4b2206)">
     <use xlink:href="#m18c322351d" x="66.662599" y="156.271532" style="fill: #ece133; fill-opacity: 0.5; stroke: #ece133; stroke-opacity: 0.5; stroke-width: 1.6"/>
    </g>
   </g>
   <g id="line2d_87">
    <g clip-path="url(#p9bee4b2206)">
     <use xlink:href="#m18c322351d" x="73.657587" y="156.271532" style="fill: #ece133; fill-opacity: 0.5; stroke: #ece133; stroke-opacity: 0.5; stroke-width: 1.6"/>
    </g>
   </g>
   <g id="line2d_88">
    <g clip-path="url(#p9bee4b2206)">
     <use xlink:href="#m18c322351d" x="74.15068" y="156.271532" style="fill: #ece133; fill-opacity: 0.5; stroke: #ece133; stroke-opacity: 0.5; stroke-width: 1.6"/>
    </g>
   </g>
   <g id="line2d_89">
    <g clip-path="url(#p9bee4b2206)">
     <use xlink:href="#m18c322351d" x="74.965183" y="156.271532" style="fill: #ece133; fill-opacity: 0.5; stroke: #ece133; stroke-opacity: 0.5; stroke-width: 1.6"/>
    </g>
   </g>
   <g id="line2d_90">
    <g clip-path="url(#p9bee4b2206)">
     <use xlink:href="#m18c322351d" x="86.329794" y="156.271532" style="fill: #ece133; fill-opacity: 0.5; stroke: #ece133; stroke-opacity: 0.5; stroke-width: 1.6"/>
    </g>
   </g>
   <g id="line2d_91">
    <defs>
     <path id="m572aa1f6d9" d="M 0 3 
L 0 -3 
" style="stroke: #ece133; stroke-opacity: 0.5; stroke-width: 1.1"/>
    </defs>
    <g clip-path="url(#p9bee4b2206)">
     <use xlink:href="#m572aa1f6d9" x="114.870861" y="156.271532" style="fill: #ece133; fill-opacity: 0.5; stroke: #ece133; stroke-opacity: 0.5; stroke-width: 1.1"/>
    </g>
   </g>
   <g id="line2d_92">
    <g clip-path="url(#p9bee4b2206)">
     <use xlink:href="#m18c322351d" x="160.633958" y="156.271532" style="fill: #ece133; fill-opacity: 0.5; stroke: #ece133; stroke-opacity: 0.5; stroke-width: 1.6"/>
    </g>
   </g>
   <g id="line2d_93">
    <g clip-path="url(#p9bee4b2206)">
     <use xlink:href="#m18c322351d" x="179.573298" y="156.271532" style="fill: #ece133; fill-opacity: 0.5; stroke: #ece133; stroke-opacity: 0.5; stroke-width: 1.6"/>
    </g>
   </g>
   <g id="line2d_94">
    <defs>
     <path id="mec2c38a0b6" d="M 0 4.5 
L 0 -4.5 
" style="stroke: #56b4e9; stroke-opacity: 0.5; stroke-width: 1.6"/>
    </defs>
    <g clip-path="url(#p9bee4b2206)">
     <use xlink:href="#mec2c38a0b6" x="66.914204" y="160.891583" style="fill: #56b4e9; fill-opacity: 0.5; stroke: #56b4e9; stroke-opacity: 0.5; stroke-width: 1.6"/>
    </g>
   </g>
   <g id="line2d_95">
    <g clip-path="url(#p9bee4b2206)">
     <use xlink:href="#mec2c38a0b6" x="74.186404" y="160.891583" style="fill: #56b4e9; fill-opacity: 0.5; stroke: #56b4e9; stroke-opacity: 0.5; stroke-width: 1.6"/>
    </g>
   </g>
   <g id="line2d_96">
    <g clip-path="url(#p9bee4b2206)">
     <use xlink:href="#mec2c38a0b6" x="75.541864" y="160.891583" style="fill: #56b4e9; fill-opacity: 0.5; stroke: #56b4e9; stroke-opacity: 0.5; stroke-width: 1.6"/>
    </g>
   </g>
   <g id="line2d_97">
    <g clip-path="url(#p9bee4b2206)">
     <use xlink:href="#mec2c38a0b6" x="84.060061" y="160.891583" style="fill: #56b4e9; fill-opacity: 0.5; stroke: #56b4e9; stroke-opacity: 0.5; stroke-width: 1.6"/>
    </g>
   </g>
   <g id="line2d_98">
    <g clip-path="url(#p9bee4b2206)">
     <use xlink:href="#mec2c38a0b6" x="86.739516" y="160.891583" style="fill: #56b4e9; fill-opacity: 0.5; stroke: #56b4e9; stroke-opacity: 0.5; stroke-width: 1.6"/>
    </g>
   </g>
   <g id="line2d_99">
    <g clip-path="url(#p9bee4b2206)">
     <use xlink:href="#mec2c38a0b6" x="87.773615" y="160.891583" style="fill: #56b4e9; fill-opacity: 0.5; stroke: #56b4e9; stroke-opacity: 0.5; stroke-width: 1.6"/>
    </g>
   </g>
   <g id="line2d_100">
    <g clip-path="url(#p9bee4b2206)">
     <use xlink:href="#mec2c38a0b6" x="108.447027" y="160.891583" style="fill: #56b4e9; fill-opacity: 0.5; stroke: #56b4e9; stroke-opacity: 0.5; stroke-width: 1.6"/>
    </g>
   </g>
   <g id="line2d_101">
    <g clip-path="url(#p9bee4b2206)">
     <use xlink:href="#mec2c38a0b6" x="125.899394" y="160.891583" style="fill: #56b4e9; fill-opacity: 0.5; stroke: #56b4e9; stroke-opacity: 0.5; stroke-width: 1.6"/>
    </g>
   </g>
   <g id="line2d_102">
    <g clip-path="url(#p9bee4b2206)">
     <use xlink:href="#mec2c38a0b6" x="139.513316" y="160.891583" style="fill: #56b4e9; fill-opacity: 0.5; stroke: #56b4e9; stroke-opacity: 0.5; stroke-width: 1.6"/>
    </g>
   </g>
   <g id="line2d_103">
    <g clip-path="url(#p9bee4b2206)">
     <use xlink:href="#mec2c38a0b6" x="154.516234" y="160.891583" style="fill: #56b4e9; fill-opacity: 0.5; stroke: #56b4e9; stroke-opacity: 0.5; stroke-width: 1.6"/>
    </g>
   </g>
  </g>
 </g>
 <defs>
  <clipPath id="p4c6c2881da">
   <rect x="58.048219" y="7.2" width="175.367407" height="99.001097"/>
  </clipPath>
  <clipPath id="p9bee4b2206">
   <rect x="58.048219" y="117.001097" width="175.367407" height="46.200512"/>
  </clipPath>
 </defs>
</svg>
