<?xml version="1.0" encoding="utf-8" standalone="no"?>
<!DOCTYPE svg PUBLIC "-//W3C//DTD SVG 1.1//EN"
  "http://www.w3.org/Graphics/SVG/1.1/DTD/svg11.dtd">
<svg xmlns:xlink="http://www.w3.org/1999/xlink" width="492.222152pt" height="133.24pt" viewBox="0 0 492.222152 133.24" xmlns="http://www.w3.org/2000/svg" version="1.1">
 <metadata>
  <rdf:RDF xmlns:dc="http://purl.org/dc/elements/1.1/" xmlns:cc="http://creativecommons.org/ns#" xmlns:rdf="http://www.w3.org/1999/02/22-rdf-syntax-ns#">
   <cc:Work>
    <dc:type rdf:resource="http://purl.org/dc/dcmitype/StillImage"/>
    <dc:date>2026-09-20T13:01:49.803932</dc:date>
    <dc:format>image/svg+xml</dc:format>
    <dc:creator>
     <cc:Agent>
      <dc:title>Matplotlib v3.10.8, https://matplotlib.org/</dc:title>
     </cc:Agent>
    </dc:creator>
   </cc:Work>
  </rdf:RDF>
 </metadata>
 <defs>
  <style type="text/css">*{stroke-linejoin: round; stroke-linecap: butt}</style>
 </defs>
 <g id="figure_1">
  <g id="patch_1">
   <path d="M 0 133.24 
L 492.222152 133.24 
L 492.222152 0 
L 0 0 
z
" style="fill: #ffffff"/>
  </g>
  <g id="axes_1">
   <g id="patch_2">
    <path d="M 39.728263 96.281609 
L 256.975207 96.281609 
L 256.975207 28.670738 
L 39.728263 28.670738 
z
" style="fill: #ffffff"/>
   </g>
   <g id="matplotlib.axis_1">
    <g id="xtick_1">
     <g id="line2d_1">
      <path d="M 61.257867 96.281609 
L 61.257867 28.670738 
" clip-path="url(#padbd52e07a)" style="fill: none; stroke: #cccccc; stroke-opacity: 0.3; stroke-width: 0.8; stroke-linecap: round"/>
     </g>
     <g id="text_1">
      <!-- $\mathdefault{4}$ -->
      <g style="fill: #262626" transform="translate(58.767199 110.143085) scale(0.1 -0.1)">
       <defs>
        <path id="CMR17-34" d="M 2150 4122 
C 2150 4256 2144 4256 2029 4256 
L 128 1254 
L 128 1088 
L 1779 1088 
L 1779 457 
C 1779 224 1766 160 1318 160 
L 1197 160 
L 1197 0 
C 1402 0 1747 0 1965 0 
C 2182 0 2528 0 2733 0 
L 2733 160 
L 2611 160 
C 2163 160 2150 224 2150 457 
L 2150 1088 
L 2803 1088 
L 2803 1254 
L 2150 1254 
L 2150 4122 
z
M 1798 3703 
L 1798 1254 
L 256 1254 
L 1798 3703 
z
" transform="scale(0.015625)"/>
       </defs>
       <use xlink:href="#CMR17-34" transform="scale(0.996264)"/>
      </g>
     </g>
    </g>
    <g id="xtick_2">
     <g id="line2d_2">
      <path d="M 97.452721 96.281609 
L 97.452721 28.670738 
" clip-path="url(#padbd52e07a)" style="fill: none; stroke: #cccccc; stroke-opacity: 0.3; stroke-width: 0.8; stroke-linecap: round"/>
     </g>
     <g id="text_2">
      <!-- $\mathdefault{6}$ -->
      <g style="fill: #262626" transform="translate(94.962053 110.143085) scale(0.1 -0.1)">
       <defs>
        <path id="CMR17-36" d="M 678 2176 
C 678 3690 1395 4032 1811 4032 
C 1946 4032 2272 4009 2400 3776 
C 2298 3776 2106 3776 2106 3553 
C 2106 3381 2246 3323 2336 3323 
C 2394 3323 2566 3348 2566 3560 
C 2566 3954 2246 4179 1805 4179 
C 1043 4179 243 3390 243 1984 
C 243 253 966 -128 1478 -128 
C 2099 -128 2688 427 2688 1283 
C 2688 2081 2170 2662 1517 2662 
C 1126 2662 838 2407 678 1960 
L 678 2176 
z
M 1478 25 
C 691 25 691 1200 691 1436 
C 691 1896 909 2560 1504 2560 
C 1613 2560 1926 2560 2138 2120 
C 2253 1870 2253 1609 2253 1289 
C 2253 944 2253 690 2118 434 
C 1978 171 1773 25 1478 25 
z
" transform="scale(0.015625)"/>
       </defs>
       <use xlink:href="#CMR17-36" transform="scale(0.996264)"/>
      </g>
     </g>
    </g>
    <g id="xtick_3">
     <g id="line2d_3">
      <path d="M 133.647575 96.281609 
L 133.647575 28.670738 
" clip-path="url(#padbd52e07a)" style="fill: none; stroke: #cccccc; stroke-opacity: 0.3; stroke-width: 0.8; stroke-linecap: round"/>
     </g>
     <g id="text_3">
      <!-- $\mathdefault{8}$ -->
      <g style="fill: #262626" transform="translate(131.156908 110.143085) scale(0.1 -0.1)">
       <defs>
        <path id="CMR17-38" d="M 1741 2264 
C 2144 2467 2554 2773 2554 3263 
C 2554 3841 1990 4179 1472 4179 
C 890 4179 378 3759 378 3180 
C 378 3021 416 2747 666 2505 
C 730 2442 998 2251 1171 2130 
C 883 1983 211 1634 211 934 
C 211 279 838 -128 1459 -128 
C 2144 -128 2720 362 2720 1010 
C 2720 1590 2330 1857 2074 2029 
L 1741 2264 
z
M 902 2822 
C 851 2854 595 3051 595 3351 
C 595 3739 998 4032 1459 4032 
C 1965 4032 2336 3676 2336 3262 
C 2336 2669 1670 2331 1638 2331 
C 1632 2331 1626 2331 1574 2370 
L 902 2822 
z
M 2080 1519 
C 2176 1449 2483 1240 2483 851 
C 2483 381 2010 25 1472 25 
C 890 25 448 438 448 940 
C 448 1443 838 1862 1280 2060 
L 2080 1519 
z
" transform="scale(0.015625)"/>
       </defs>
       <use xlink:href="#CMR17-38" transform="scale(0.996264)"/>
      </g>
     </g>
    </g>
    <g id="xtick_4">
     <g id="line2d_4">
      <path d="M 169.84243 96.281609 
L 169.84243 28.670738 
" clip-path="url(#padbd52e07a)" style="fill: none; stroke: #cccccc; stroke-opacity: 0.3; stroke-width: 0.8; stroke-linecap: round"/>
     </g>
     <g id="text_4">
      <!-- $\mathdefault{10}$ -->
      <g style="fill: #262626" transform="translate(164.861094 110.143085) scale(0.1 -0.1)">
       <defs>
        <path id="CMR17-31" d="M 1702 4058 
C 1702 4192 1696 4192 1606 4192 
C 1357 3916 979 3827 621 3827 
C 602 3827 570 3827 563 3808 
C 557 3795 557 3782 557 3648 
C 755 3648 1088 3686 1344 3839 
L 1344 461 
C 1344 236 1331 160 781 160 
L 589 160 
L 589 0 
C 896 0 1216 0 1523 0 
C 1830 0 2150 0 2458 0 
L 2458 160 
L 2266 160 
C 1715 160 1702 230 1702 458 
L 1702 4058 
z
" transform="scale(0.015625)"/>
        <path id="CMR17-30" d="M 2688 2025 
C 2688 2416 2682 3080 2413 3591 
C 2176 4039 1798 4198 1466 4198 
C 1158 4198 768 4058 525 3597 
C 269 3118 243 2524 243 2025 
C 243 1661 250 1106 448 619 
C 723 -39 1216 -128 1466 -128 
C 1760 -128 2208 -7 2470 600 
C 2662 1042 2688 1559 2688 2025 
z
M 1466 -26 
C 1056 -26 813 325 723 812 
C 653 1188 653 1738 653 2096 
C 653 2588 653 2997 736 3387 
C 858 3929 1216 4096 1466 4096 
C 1728 4096 2067 3923 2189 3400 
C 2272 3036 2278 2607 2278 2096 
C 2278 1680 2278 1169 2202 792 
C 2067 95 1690 -26 1466 -26 
z
" transform="scale(0.015625)"/>
       </defs>
       <use xlink:href="#CMR17-31" transform="scale(0.996264)"/>
       <use xlink:href="#CMR17-30" transform="translate(45.690477 0) scale(0.996264)"/>
      </g>
     </g>
    </g>
    <g id="xtick_5">
     <g id="line2d_5">
      <path d="M 206.037284 96.281609 
L 206.037284 28.670738 
" clip-path="url(#padbd52e07a)" style="fill: none; stroke: #cccccc; stroke-opacity: 0.3; stroke-width: 0.8; stroke-linecap: round"/>
     </g>
     <g id="text_5">
      <!-- $\mathdefault{12}$ -->
      <g style="fill: #262626" transform="translate(201.055949 110.143085) scale(0.1 -0.1)">
       <defs>
        <path id="CMR17-32" d="M 2669 989 
L 2554 989 
C 2490 536 2438 459 2413 420 
C 2381 369 1920 369 1830 369 
L 602 369 
C 832 619 1280 1072 1824 1597 
C 2214 1967 2669 2402 2669 3035 
C 2669 3790 2067 4224 1395 4224 
C 691 4224 262 3604 262 3030 
C 262 2780 448 2748 525 2748 
C 589 2748 781 2787 781 3010 
C 781 3207 614 3264 525 3264 
C 486 3264 448 3258 422 3245 
C 544 3790 915 4058 1306 4058 
C 1862 4058 2227 3617 2227 3035 
C 2227 2479 1901 2000 1536 1584 
L 262 146 
L 262 0 
L 2515 0 
L 2669 989 
z
" transform="scale(0.015625)"/>
       </defs>
       <use xlink:href="#CMR17-31" transform="scale(0.996264)"/>
       <use xlink:href="#CMR17-32" transform="translate(45.690477 0) scale(0.996264)"/>
      </g>
     </g>
    </g>
    <g id="xtick_6">
     <g id="line2d_6">
      <path d="M 242.232138 96.281609 
L 242.232138 28.670738 
" clip-path="url(#padbd52e07a)" style="fill: none; stroke: #cccccc; stroke-opacity: 0.3; stroke-width: 0.8; stroke-linecap: round"/>
     </g>
     <g id="text_6">
      <!-- $\mathdefault{14}$ -->
      <g style="fill: #262626" transform="translate(237.250803 110.143085) scale(0.1 -0.1)">
       <use xlink:href="#CMR17-31" transform="scale(0.996264)"/>
       <use xlink:href="#CMR17-34" transform="translate(45.690477 0) scale(0.996264)"/>
      </g>
     </g>
    </g>
    <g id="text_7">
     <!-- Latency (ms). Size: 10KB -->
     <g style="fill: #262626" transform="translate(91.191209 123.549948) scale(0.1 -0.1)">
      <defs>
       <path id="SFRM3583-4c" d="M 467 4365 
L 467 4224 
L 576 4224 
C 742 4224 877 4205 877 3955 
L 877 410 
C 877 160 768 141 467 141 
L 467 0 
L 3206 0 
L 3341 1592 
L 3258 1592 
C 3219 1100 3194 397 2470 192 
C 2278 141 2086 141 1888 141 
L 1376 141 
C 1242 141 1184 205 1184 346 
C 1184 391 1190 429 1190 468 
L 1190 3809 
C 1190 3854 1184 3905 1184 3955 
C 1184 4179 1306 4224 1562 4224 
L 1702 4224 
L 1702 4365 
L 467 4365 
z
" transform="scale(0.015625)"/>
       <path id="SFRM3583-61" d="M 576 2080 
C 659 2413 883 2740 1274 2740 
C 1619 2740 1869 2415 1920 2101 
C 1933 2018 1933 1928 1933 1846 
L 1933 1597 
C 1318 1597 474 1456 320 686 
C 314 647 314 603 314 564 
C 314 134 800 -32 1133 -32 
C 1446 -32 1856 177 1939 535 
L 1946 535 
C 1946 268 2125 0 2394 0 
C 2746 0 2829 376 2829 650 
L 2829 936 
L 2746 936 
L 2746 612 
C 2746 408 2701 115 2470 115 
C 2208 115 2195 453 2195 625 
L 2195 1810 
C 2195 1969 2189 2134 2125 2288 
C 1990 2599 1638 2816 1293 2816 
C 800 2816 480 2386 480 1918 
C 480 1798 570 1728 672 1728 
C 774 1728 858 1811 858 1914 
C 858 2010 794 2099 672 2099 
C 640 2099 608 2093 576 2080 
z
M 1933 1527 
L 1933 898 
C 1933 475 1670 77 1229 45 
L 1190 45 
C 896 45 627 276 627 590 
C 627 1257 1363 1527 1933 1527 
z
" transform="scale(0.015625)"/>
       <path id="SFRM3583-74" d="M 845 3936 
C 845 3572 762 2688 109 2688 
L 109 2612 
L 666 2612 
L 666 1136 
C 666 1048 659 945 659 849 
C 659 453 787 -32 1318 -32 
C 1811 -32 1907 511 1907 907 
L 1907 1155 
L 1824 1155 
C 1824 1059 1830 964 1830 862 
C 1830 575 1773 51 1376 51 
C 1005 51 922 505 922 849 
C 922 958 928 1060 928 1168 
L 928 2612 
L 1811 2612 
L 1811 2752 
L 928 2752 
L 928 3936 
L 845 3936 
z
" transform="scale(0.015625)"/>
       <path id="SFRM3583-65" d="M 563 1524 
L 2246 1524 
C 2259 1524 2285 1517 2310 1517 
C 2355 1517 2374 1543 2374 1581 
C 2374 2154 2099 2816 1382 2816 
C 614 2816 237 2031 237 1405 
C 237 778 589 70 1350 -26 
C 1376 -26 1402 -32 1427 -32 
C 1869 -32 2208 273 2355 686 
C 2362 705 2368 730 2368 749 
C 2368 768 2362 787 2336 787 
C 2272 787 2266 686 2246 628 
C 2118 324 1843 57 1485 57 
C 1216 57 960 210 813 425 
C 576 742 563 1149 563 1524 
z
M 570 1600 
C 582 2103 832 2740 1370 2740 
C 1818 2740 2010 2264 2061 1890 
C 2067 1793 2067 1697 2080 1600 
L 570 1600 
z
" transform="scale(0.015625)"/>
       <path id="SFRM3583-6e" d="M 301 2746 
L 301 2605 
L 365 2605 
C 570 2605 678 2560 678 2275 
L 678 361 
C 678 154 525 141 301 141 
L 301 0 
L 1318 0 
L 1318 141 
L 1229 141 
C 1082 141 941 160 941 361 
L 941 1777 
C 979 2217 1203 2740 1709 2740 
C 2112 2740 2266 2417 2266 1951 
L 2266 361 
C 2266 154 2112 141 1888 141 
L 1888 0 
L 2906 0 
L 2906 141 
L 2803 141 
C 2656 141 2528 160 2528 386 
L 2528 1885 
C 2528 2299 2451 2816 1760 2816 
C 1414 2816 1178 2629 1024 2352 
C 986 2281 947 2204 934 2126 
L 928 2816 
L 301 2746 
z
" transform="scale(0.015625)"/>
       <path id="SFRM3583-63" d="M 2221 2092 
C 2189 2099 2157 2105 2125 2105 
C 2022 2105 1946 2016 1946 1920 
C 1946 1824 2022 1728 2131 1728 
C 2221 1728 2310 1792 2323 1888 
L 2323 1926 
C 2323 2366 1965 2819 1440 2819 
C 717 2819 269 2069 269 1390 
C 269 718 678 32 1363 -32 
L 1427 -32 
C 1882 -32 2240 257 2368 688 
C 2374 713 2381 739 2381 765 
C 2381 784 2368 790 2355 790 
C 2285 790 2272 669 2246 604 
C 2131 276 1824 51 1498 51 
C 890 51 595 769 595 1295 
C 595 1833 710 2737 1453 2737 
C 1811 2737 2138 2443 2221 2092 
z
" transform="scale(0.015625)"/>
       <path id="SFRM3583-79" d="M 90 2816 
L 90 2676 
L 134 2676 
C 435 2676 442 2598 672 2024 
C 915 1424 1178 818 1395 212 
C 1421 161 1453 102 1453 44 
C 1453 32 1453 12 1446 0 
C 1389 -161 1318 -322 1254 -483 
C 1139 -772 992 -1171 627 -1171 
C 493 -1171 352 -1114 256 -1024 
C 358 -1024 448 -966 448 -851 
C 448 -755 371 -685 275 -685 
C 186 -685 109 -749 109 -864 
C 109 -1114 390 -1248 614 -1248 
C 1043 -1248 1210 -816 1350 -462 
C 1651 292 1971 1033 2253 1793 
L 2368 2083 
C 2464 2334 2573 2676 2931 2676 
L 2931 2816 
L 2189 2816 
L 2189 2676 
C 2304 2676 2394 2559 2394 2450 
C 2394 2333 2330 2211 2291 2115 
C 2138 1734 1984 1360 1837 979 
L 1683 599 
C 1658 527 1626 463 1606 392 
L 1600 392 
C 1581 463 1549 534 1523 599 
L 1382 953 
C 1235 1334 1082 1709 928 2089 
L 819 2360 
C 800 2411 774 2463 768 2515 
L 768 2527 
C 768 2656 922 2676 1018 2676 
L 1018 2816 
L 717 2816 
L 90 2816 
z
" transform="scale(0.015625)"/>
       <path id="SFRM3583-28" d="M 1837 4768 
C 1747 4717 1645 4608 1574 4519 
C 845 3725 595 2618 595 1568 
C 595 551 851 -512 1523 -1293 
C 1619 -1395 1786 -1600 1869 -1600 
C 1882 -1600 1894 -1593 1894 -1581 
C 1894 -1542 1709 -1363 1619 -1254 
C 1011 -467 813 576 813 1555 
C 813 2669 1030 3783 1805 4647 
C 1830 4672 1882 4711 1894 4749 
L 1894 4755 
C 1894 4768 1882 4775 1869 4775 
C 1856 4775 1843 4768 1837 4768 
z
" transform="scale(0.015625)"/>
       <path id="SFRM3583-6d" d="M 301 2746 
L 301 2605 
L 365 2605 
C 570 2605 678 2560 678 2275 
L 678 361 
C 678 154 525 141 301 141 
L 301 0 
L 1318 0 
L 1318 141 
L 1229 141 
C 1082 141 941 160 941 361 
L 941 1259 
C 941 1376 934 1485 934 1603 
C 934 2067 1088 2740 1715 2740 
C 2112 2740 2272 2430 2272 1951 
L 2272 361 
C 2272 154 2118 141 1894 141 
L 1894 0 
L 2912 0 
L 2912 141 
L 2822 141 
C 2675 141 2534 160 2534 361 
L 2534 1259 
C 2534 1376 2528 1485 2528 1603 
C 2528 2067 2682 2740 3309 2740 
C 3706 2740 3866 2430 3866 1951 
L 3866 361 
C 3866 154 3712 141 3488 141 
L 3488 0 
L 4506 0 
L 4506 141 
L 4403 141 
C 4256 141 4128 160 4128 386 
L 4128 1860 
C 4128 2292 4058 2816 3354 2816 
C 2957 2816 2611 2526 2534 2146 
L 2528 2146 
C 2470 2487 2323 2816 1760 2816 
C 1357 2816 998 2494 934 2120 
L 928 2816 
L 301 2746 
z
" transform="scale(0.015625)"/>
       <path id="SFRM3583-73" d="M 422 384 
C 576 141 781 -32 1126 -32 
C 1549 -32 2067 147 2067 764 
C 2067 1071 1901 1353 1600 1501 
C 1216 1694 538 1604 384 2085 
C 371 2123 365 2168 365 2213 
C 365 2592 749 2752 1094 2752 
C 1466 2752 1786 2539 1837 1937 
C 1843 1905 1837 1822 1882 1822 
C 1920 1822 1926 1854 1926 1893 
L 1926 2758 
C 1926 2784 1926 2816 1901 2816 
C 1869 2816 1766 2636 1734 2540 
C 1562 2722 1376 2816 1120 2816 
C 730 2816 192 2688 192 2108 
C 192 1424 1030 1424 1408 1289 
C 1670 1200 1894 975 1894 686 
L 1894 673 
C 1882 269 1568 45 1139 45 
C 544 45 371 604 294 1065 
C 288 1104 288 1181 237 1181 
C 198 1181 192 1155 192 1123 
L 192 26 
C 192 6 192 -19 211 -26 
L 218 -26 
C 262 -26 371 256 422 384 
z
" transform="scale(0.015625)"/>
       <path id="SFRM3583-29" d="M 333 4781 
C 333 4781 326 4781 326 4774 
C 326 4742 518 4563 608 4448 
C 1210 3661 1414 2637 1414 1658 
C 1414 557 1216 -576 422 -1453 
C 397 -1478 346 -1517 333 -1555 
L 333 -1562 
C 333 -1574 339 -1574 352 -1574 
C 448 -1574 570 -1414 659 -1318 
C 1395 -493 1632 576 1632 1632 
C 1632 2739 1318 4000 442 4749 
C 429 4762 390 4794 358 4794 
C 346 4794 339 4787 333 4781 
z
" transform="scale(0.015625)"/>
       <path id="SFRM3583-2e" d="M 762 410 
C 659 410 595 295 595 212 
C 595 116 672 0 794 0 
C 922 0 1005 107 1005 202 
C 1005 291 928 410 800 410 
C 787 410 774 410 762 410 
z
" transform="scale(0.015625)"/>
       <path id="SFRM3583-53" d="M 563 538 
C 653 448 717 340 819 263 
C 1069 64 1395 -64 1709 -64 
C 2394 -64 2861 527 2861 1165 
C 2861 1635 2605 2093 2170 2292 
C 2067 2337 1958 2356 1856 2388 
L 1434 2504 
C 1254 2555 1069 2595 915 2710 
C 678 2884 550 3161 550 3445 
C 550 3960 973 4346 1472 4346 
C 2138 4346 2522 3753 2598 3115 
C 2605 3077 2598 2954 2656 2954 
L 2675 2954 
C 2701 2961 2701 2980 2701 3005 
L 2701 4429 
C 2701 4448 2701 4467 2682 4474 
L 2675 4474 
C 2637 4474 2502 4088 2451 3888 
C 2240 4249 1894 4480 1466 4480 
C 922 4480 320 4088 320 3354 
C 320 2890 602 2458 1043 2291 
C 1139 2253 1242 2233 1344 2208 
L 1773 2085 
C 1875 2060 1978 2034 2074 1996 
C 2419 1847 2637 1461 2637 1087 
L 2637 1010 
C 2598 540 2272 83 1722 83 
C 1037 83 403 572 403 1390 
C 403 1422 403 1473 365 1473 
C 326 1473 320 1448 320 1415 
L 320 6 
C 320 -15 326 -32 346 -32 
C 403 -32 563 538 563 538 
z
" transform="scale(0.015625)"/>
       <path id="SFRM3583-69" d="M 326 2735 
L 326 2593 
L 358 2593 
C 563 2593 678 2561 678 2251 
L 678 360 
C 678 154 531 141 307 141 
L 307 0 
L 1274 0 
L 1274 141 
L 1190 141 
C 1056 141 934 154 934 373 
L 934 2805 
L 326 2735 
z
M 698 4160 
C 595 4160 531 4045 531 3962 
C 531 3866 608 3751 730 3751 
C 858 3751 934 3857 934 3952 
C 934 4046 858 4160 736 4160 
C 723 4160 710 4160 698 4160 
z
" transform="scale(0.015625)"/>
       <path id="SFRM3583-7a" d="M 294 2749 
L 237 1788 
L 320 1788 
C 326 2011 339 2291 493 2469 
C 634 2647 902 2679 1152 2679 
C 1274 2679 1395 2679 1491 2679 
L 1978 2679 
C 1421 1839 819 1025 250 192 
C 218 141 166 96 166 39 
L 166 20 
C 179 0 211 0 237 0 
L 2227 0 
L 2310 1121 
L 2227 1121 
C 2214 856 2189 505 2029 305 
C 1856 84 1517 84 1235 84 
L 1043 84 
C 851 84 666 84 474 84 
L 2278 2685 
L 2278 2749 
L 2240 2749 
L 294 2749 
z
" transform="scale(0.015625)"/>
       <path id="SFRM3583-3a" d="M 762 2752 
C 659 2752 595 2637 595 2554 
C 595 2458 672 2342 794 2342 
C 922 2342 1005 2449 1005 2544 
C 1005 2633 928 2752 800 2752 
C 787 2752 774 2752 762 2752 
z
M 762 410 
C 659 410 595 295 595 212 
C 595 116 672 0 794 0 
C 922 0 1005 107 1005 202 
C 1005 291 928 410 800 410 
C 787 410 774 410 762 410 
z
" transform="scale(0.015625)"/>
       <path id="SFRM3583-31" d="M 608 3635 
C 698 3648 794 3648 883 3661 
C 1056 3693 1210 3751 1357 3841 
L 1357 416 
C 1357 173 1139 135 915 135 
C 819 135 723 135 640 135 
L 640 0 
L 2349 0 
L 2349 135 
C 2259 135 2163 135 2067 135 
C 1837 135 1632 173 1632 416 
L 1632 4140 
C 1632 4159 1626 4192 1606 4192 
C 1555 4192 1446 4056 1376 4004 
C 1184 3866 934 3782 710 3782 
L 672 3782 
C 634 3782 608 3776 608 3731 
L 608 3635 
z
" transform="scale(0.015625)"/>
       <path id="SFRM3583-30" d="M 1357 4221 
C 454 4117 301 2985 301 2051 
C 301 1485 333 809 653 352 
C 832 101 1114 -79 1421 -79 
C 1933 -79 2259 326 2406 783 
C 2541 1201 2560 1639 2560 2070 
C 2560 2650 2534 3371 2182 3828 
C 2003 4060 1728 4227 1434 4227 
C 1408 4227 1382 4221 1357 4221 
z
M 627 1704 
L 627 2297 
C 627 3056 666 4145 1434 4145 
C 1965 4145 2150 3533 2202 3082 
C 2227 2793 2234 2509 2234 2219 
L 2234 1762 
C 2234 1279 2208 770 2003 390 
C 1888 184 1677 4 1434 4 
L 1395 4 
C 659 94 698 1054 627 1704 
z
" transform="scale(0.015625)"/>
       <path id="SFRM3583-4b" d="M 467 4365 
L 467 4224 
L 576 4224 
C 742 4224 877 4205 877 3955 
L 877 410 
C 877 160 768 141 467 141 
L 467 0 
L 1600 0 
L 1600 141 
L 1536 141 
C 1338 141 1184 154 1184 384 
C 1184 435 1190 486 1190 524 
L 1190 1496 
C 1190 1610 1325 1693 1402 1770 
C 1555 1930 1715 2090 1862 2249 
C 1926 2313 2003 2377 2054 2454 
L 2067 2454 
C 2099 2377 2150 2313 2195 2243 
L 2426 1885 
C 2669 1502 2918 1112 3162 729 
L 3283 537 
C 3334 460 3398 365 3398 282 
C 3398 199 3328 141 3213 141 
L 3213 0 
L 4211 0 
L 4211 141 
C 3910 141 3789 314 3590 621 
C 3462 826 3328 1031 3200 1236 
L 2368 2541 
C 2342 2580 2298 2624 2291 2669 
C 2291 2688 2304 2708 2317 2720 
L 2394 2797 
C 2682 3085 2963 3386 3251 3680 
C 3488 3930 3763 4224 4134 4224 
L 4134 4365 
L 3302 4365 
L 3302 4224 
C 3379 4185 3411 4166 3411 4090 
C 3411 3892 3142 3694 3002 3541 
C 2406 2914 1805 2294 1190 1681 
L 1190 4000 
C 1190 4211 1357 4224 1542 4224 
L 1600 4224 
L 1600 4365 
L 467 4365 
z
" transform="scale(0.015625)"/>
       <path id="SFRM3583-42" d="M 474 4352 
L 474 4231 
L 582 4231 
C 749 4231 883 4212 883 3962 
L 883 416 
C 883 166 774 147 474 147 
L 474 0 
L 2067 0 
C 2176 0 2278 0 2387 0 
C 2995 0 3738 369 3738 1153 
C 3738 1771 3168 2275 2554 2275 
C 2976 2391 3578 2592 3578 3297 
C 3578 3925 2989 4352 2387 4352 
L 474 4352 
z
M 1184 2225 
L 2285 2225 
C 2470 2225 2656 2225 2822 2129 
C 3168 1945 3379 1569 3379 1186 
C 3379 567 2854 147 2227 147 
C 2131 147 2029 147 1933 147 
L 1357 147 
C 1235 147 1184 217 1184 332 
L 1184 2225 
z
M 1184 2307 
L 1184 4020 
C 1184 4135 1210 4231 1357 4231 
L 1907 4231 
C 2003 4231 2099 4231 2202 4231 
C 2662 4231 3232 3962 3232 3291 
C 3232 2799 2816 2403 2342 2326 
C 2240 2307 2131 2307 2029 2307 
L 1184 2307 
z
" transform="scale(0.015625)"/>
      </defs>
      <use xlink:href="#SFRM3583-4c" transform="scale(0.996264)"/>
      <use xlink:href="#SFRM3583-61" transform="translate(55.709683 0) scale(0.996264)"/>
      <use xlink:href="#SFRM3583-74" transform="translate(100.28815 0) scale(0.996264)"/>
      <use xlink:href="#SFRM3583-65" transform="translate(134.946496 0) scale(0.996264)"/>
      <use xlink:href="#SFRM3583-6e" transform="translate(174.564895 0) scale(0.996264)"/>
      <use xlink:href="#SFRM3583-63" transform="translate(224.103323 0) scale(0.996264)"/>
      <use xlink:href="#SFRM3583-79" transform="translate(263.721722 0) scale(0.996264)"/>
      <use xlink:href="#SFRM3583-28" transform="translate(340.478455 0) scale(0.996264)"/>
      <use xlink:href="#SFRM3583-6d" transform="translate(375.136801 0) scale(0.996264)"/>
      <use xlink:href="#SFRM3583-73" transform="translate(449.475417 0) scale(0.996264)"/>
      <use xlink:href="#SFRM3583-29" transform="translate(484.629812 0) scale(0.996264)"/>
      <use xlink:href="#SFRM3583-2e" transform="translate(519.288158 0) scale(0.996264)"/>
      <use xlink:href="#SFRM3583-53" transform="translate(583.644798 0) scale(0.996264)"/>
      <use xlink:href="#SFRM3583-69" transform="translate(633.183226 0) scale(0.996264)"/>
      <use xlink:href="#SFRM3583-7a" transform="translate(657.921558 0) scale(0.996264)"/>
      <use xlink:href="#SFRM3583-65" transform="translate(697.539956 0) scale(0.996264)"/>
      <use xlink:href="#SFRM3583-3a" transform="translate(737.158355 0) scale(0.996264)"/>
      <use xlink:href="#SFRM3583-31" transform="translate(801.514994 0) scale(0.996264)"/>
      <use xlink:href="#SFRM3583-30" transform="translate(846.093461 0) scale(0.996264)"/>
      <use xlink:href="#SFRM3583-4b" transform="translate(890.671928 0) scale(0.996264)"/>
      <use xlink:href="#SFRM3583-42" transform="translate(959.992907 0) scale(0.996264)"/>
     </g>
    </g>
   </g>
   <g id="matplotlib.axis_2">
    <g id="ytick_1">
     <g id="line2d_7">
      <path d="M 39.728263 96.281609 
L 256.975207 96.281609 
" clip-path="url(#padbd52e07a)" style="fill: none; stroke: #cccccc; stroke-opacity: 0.3; stroke-width: 0.8; stroke-linecap: round"/>
     </g>
     <g id="text_8">
      <!-- $\mathdefault{0.0}$ -->
      <g style="fill: #262626" transform="translate(19.998184 99.712347) scale(0.1 -0.1)">
       <defs>
        <path id="CMMI12-3a" d="M 1178 307 
C 1178 492 1024 619 870 619 
C 685 619 557 466 557 313 
C 557 128 710 0 864 0 
C 1050 0 1178 153 1178 307 
z
" transform="scale(0.015625)"/>
       </defs>
       <use xlink:href="#CMR17-30" transform="scale(0.996264)"/>
       <use xlink:href="#CMMI12-3a" transform="translate(45.690477 0) scale(0.996264)"/>
       <use xlink:href="#CMR17-30" transform="translate(72.787654 0) scale(0.996264)"/>
      </g>
     </g>
    </g>
    <g id="ytick_2">
     <g id="line2d_8">
      <path d="M 39.728263 62.476173 
L 256.975207 62.476173 
" clip-path="url(#padbd52e07a)" style="fill: none; stroke: #cccccc; stroke-opacity: 0.3; stroke-width: 0.8; stroke-linecap: round"/>
     </g>
     <g id="text_9">
      <!-- $\mathdefault{0.5}$ -->
      <g style="fill: #262626" transform="translate(19.998184 65.906912) scale(0.1 -0.1)">
       <defs>
        <path id="CMR17-35" d="M 730 3692 
C 794 3666 1056 3584 1325 3584 
C 1920 3584 2246 3911 2432 4100 
C 2432 4157 2432 4192 2394 4192 
C 2387 4192 2374 4192 2323 4163 
C 2099 4058 1837 3973 1517 3973 
C 1325 3973 1037 3999 723 4139 
C 653 4171 640 4171 634 4171 
C 602 4171 595 4164 595 4037 
L 595 2203 
C 595 2089 595 2057 659 2057 
C 691 2057 704 2070 736 2114 
C 941 2401 1222 2522 1542 2522 
C 1766 2522 2246 2382 2246 1289 
C 2246 1085 2246 715 2054 421 
C 1894 159 1645 25 1370 25 
C 947 25 518 320 403 814 
C 429 807 480 795 506 795 
C 589 795 749 840 749 1038 
C 749 1210 627 1280 506 1280 
C 358 1280 262 1190 262 1011 
C 262 454 704 -128 1382 -128 
C 2042 -128 2669 440 2669 1264 
C 2669 2030 2170 2624 1549 2624 
C 1222 2624 947 2503 730 2274 
L 730 3692 
z
" transform="scale(0.015625)"/>
       </defs>
       <use xlink:href="#CMR17-30" transform="scale(0.996264)"/>
       <use xlink:href="#CMMI12-3a" transform="translate(45.690477 0) scale(0.996264)"/>
       <use xlink:href="#CMR17-35" transform="translate(72.787654 0) scale(0.996264)"/>
      </g>
     </g>
    </g>
    <g id="ytick_3">
     <g id="line2d_9">
      <path d="M 39.728263 28.670738 
L 256.975207 28.670738 
" clip-path="url(#padbd52e07a)" style="fill: none; stroke: #cccccc; stroke-opacity: 0.3; stroke-width: 0.8; stroke-linecap: round"/>
     </g>
     <g id="text_10">
      <!-- $\mathdefault{1.0}$ -->
      <g style="fill: #262626" transform="translate(19.998184 32.101476) scale(0.1 -0.1)">
       <use xlink:href="#CMR17-31" transform="scale(0.996264)"/>
       <use xlink:href="#CMMI12-3a" transform="translate(45.690477 0) scale(0.996264)"/>
       <use xlink:href="#CMR17-30" transform="translate(72.787654 0) scale(0.996264)"/>
      </g>
     </g>
    </g>
    <g id="text_11">
     <!-- CDF -->
     <g style="fill: #262626" transform="translate(14.061476 73.128062) rotate(-90) scale(0.1 -0.1)">
      <defs>
       <path id="SFRM3583-43" d="M 3501 3725 
C 3187 4096 2899 4429 2285 4429 
C 1120 4429 320 3301 320 2185 
C 320 1051 1133 -64 2285 -64 
C 3142 -64 3821 682 3821 1523 
L 3821 1548 
C 3814 1567 3802 1574 3782 1574 
C 3718 1574 3712 1211 3654 1051 
C 3475 504 2995 77 2374 77 
C 1779 77 1242 446 960 943 
C 742 1319 678 1778 678 2204 
C 678 3212 1242 4288 2374 4288 
C 3213 4288 3654 3460 3725 2785 
C 3731 2746 3744 2708 3776 2708 
C 3814 2708 3821 2734 3821 2765 
L 3821 4371 
C 3821 4393 3821 4421 3802 4429 
L 3795 4429 
C 3744 4429 3526 3827 3501 3725 
z
" transform="scale(0.015625)"/>
       <path id="SFRM3583-44" d="M 467 4416 
L 467 4275 
L 576 4275 
C 742 4275 877 4256 877 4005 
L 877 443 
C 877 192 768 173 467 173 
L 467 64 
L 2381 64 
C 3475 64 4058 1195 4058 2172 
C 4058 3239 3443 4416 2195 4416 
L 467 4416 
z
M 3699 2061 
C 3693 2021 3693 1989 3693 1957 
L 3693 1855 
C 3642 1181 3309 462 2624 237 
C 2419 173 2214 173 1997 173 
L 1370 173 
C 1254 173 1210 205 1184 327 
L 1184 3807 
C 1184 3871 1178 3935 1178 3999 
C 1178 4134 1178 4275 1363 4275 
L 2278 4275 
C 3392 4172 3706 3048 3706 2189 
C 3706 2144 3706 2106 3699 2061 
z
" transform="scale(0.015625)"/>
       <path id="SFRM3583-46" d="M 467 4365 
L 467 4224 
L 576 4224 
C 742 4224 877 4205 877 3956 
L 877 410 
C 877 160 768 141 467 141 
L 467 0 
L 1702 0 
L 1702 141 
L 1555 141 
C 1331 141 1190 160 1190 404 
L 1190 2112 
L 1779 2112 
C 1984 2112 2221 2112 2336 1930 
C 2419 1808 2426 1633 2426 1477 
L 2426 1368 
L 2509 1368 
L 2509 3006 
L 2426 3006 
L 2426 2897 
C 2426 2419 2285 2259 1645 2259 
L 1190 2259 
L 1190 4046 
C 1190 4160 1242 4224 1363 4224 
L 2202 4224 
C 2630 4224 3117 4224 3302 3660 
C 3379 3442 3392 3204 3418 2980 
L 3501 2980 
L 3366 4365 
L 467 4365 
z
" transform="scale(0.015625)"/>
      </defs>
      <use xlink:href="#SFRM3583-43" transform="scale(0.996264)"/>
      <use xlink:href="#SFRM3583-44" transform="translate(64.418587 0) scale(0.996264)"/>
      <use xlink:href="#SFRM3583-46" transform="translate(132.528363 0) scale(0.996264)"/>
     </g>
    </g>
   </g>
   <g id="line2d_10">
    <path d="M 184.809002 96.281609 
L 184.809002 96.191461 
L 184.971879 96.191461 
L 184.971879 96.101313 
L 184.971879 96.011165 
L 185.351925 95.921017 
L 185.406217 95.470278 
L 185.532899 95.38013 
L 185.605289 95.199835 
L 185.695776 95.109687 
L 185.750068 94.929391 
L 185.822458 94.929391 
L 185.822458 94.839243 
L 185.912945 94.658948 
L 186.075822 94.5688 
L 186.166309 94.388504 
L 186.329186 94.298356 
L 186.329186 94.208209 
L 186.51016 94.118061 
L 186.600647 93.937765 
L 186.691134 93.847617 
L 186.745426 93.667322 
L 186.854011 93.577174 
L 186.962596 93.126435 
L 187.016888 93.036287 
L 187.125472 92.134809 
L 187.288349 92.134809 
L 187.288349 92.044661 
L 187.342642 91.864365 
L 187.487421 91.774217 
L 187.577908 90.962887 
L 187.650298 90.872739 
L 187.758882 90.241704 
L 187.77698 90.241704 
L 187.77698 90.151556 
L 187.867467 89.790965 
L 187.921759 89.790965 
L 187.921759 89.700817 
L 188.012246 88.979635 
L 188.138928 88.889487 
L 188.247513 88.3486 
L 188.26561 88.3486 
L 188.26561 88.258452 
L 188.374195 87.897861 
L 188.428487 87.807713 
L 188.537072 87.08653 
L 188.573267 86.996382 
L 188.681851 85.914608 
L 188.718046 85.824461 
L 188.826631 85.01313 
L 188.917118 84.922982 
L 189.025702 83.751061 
L 189.079995 83.660913 
L 189.170482 82.93973 
L 189.224774 82.849582 
L 189.315261 81.767808 
L 189.369553 81.677661 
L 189.460041 80.505739 
L 189.496235 80.505739 
L 189.496235 80.415591 
L 189.60482 79.874704 
L 189.641015 79.874704 
L 189.641015 79.784556 
L 189.731502 79.153521 
L 189.803892 79.063374 
L 189.912476 78.432339 
L 190.002963 78.432339 
L 190.002963 78.342191 
L 190.021061 78.161895 
L 190.346814 78.071748 
L 190.383009 77.801304 
L 190.491594 77.801304 
L 190.491594 77.711156 
L 190.582081 77.260417 
L 190.708763 77.170269 
L 190.72686 76.899826 
L 190.87164 76.809678 
L 190.962127 76.358939 
L 191.034517 76.268791 
L 191.143101 75.547608 
L 191.179296 75.547608 
L 191.179296 75.457461 
L 191.287881 74.736278 
L 191.378368 74.64613 
L 191.468855 74.015095 
L 191.523147 73.924947 
L 191.595537 73.293913 
L 191.667927 73.203765 
L 191.722219 72.662878 
L 191.830804 72.662878 
L 191.830804 72.57273 
L 191.939388 71.671252 
L 191.957486 71.671252 
L 191.957486 71.581104 
L 192.047973 71.31066 
L 192.102265 71.220513 
L 192.210849 70.589478 
L 192.373726 70.49933 
L 192.482311 69.958443 
L 192.500408 69.958443 
L 192.500408 69.868295 
L 192.608993 69.147113 
L 192.62709 69.147113 
L 192.62709 69.056965 
L 192.69948 68.42593 
L 192.77187 68.335782 
L 192.880454 67.524452 
L 192.934747 67.524452 
L 192.934747 67.434304 
L 193.043331 66.622973 
L 193.061429 66.622973 
L 193.061429 66.532826 
L 193.151916 66.172234 
L 193.224305 66.082087 
L 193.33289 65.180608 
L 193.369085 65.09046 
L 193.477669 64.188982 
L 193.495767 64.188982 
L 193.495767 64.098834 
L 193.586254 63.197356 
L 193.622449 63.197356 
L 193.622449 63.107208 
L 193.731033 62.115582 
L 193.749131 62.115582 
L 193.749131 62.025434 
L 193.839618 61.664843 
L 193.875813 61.664843 
L 193.875813 61.574695 
L 193.89391 61.304252 
L 194.002495 61.304252 
L 194.002495 61.214104 
L 194.111079 60.583069 
L 194.147274 60.583069 
L 194.147274 60.492921 
L 194.237761 59.591443 
L 194.273956 59.591443 
L 194.273956 59.501295 
L 194.382541 58.780113 
L 194.400638 58.780113 
L 194.400638 58.689965 
L 194.491125 58.329373 
L 194.617807 58.239226 
L 194.726392 57.337747 
L 194.744489 57.337747 
L 194.744489 57.247599 
L 194.853074 56.346121 
L 194.907366 56.346121 
L 194.907366 56.255973 
L 195.015951 55.264347 
L 195.034048 55.264347 
L 195.034048 55.174199 
L 195.142633 53.91213 
L 195.16073 53.91213 
L 195.16073 53.821982 
L 195.269315 52.469765 
L 195.30551 52.469765 
L 195.30551 52.379617 
L 195.414094 51.478139 
L 195.432192 51.478139 
L 195.432192 51.387991 
L 195.522679 50.756956 
L 195.576971 50.666808 
L 195.667458 49.675182 
L 195.757945 49.585034 
L 195.86653 48.863852 
L 195.884627 48.863852 
L 195.884627 48.773704 
L 195.975114 48.50326 
L 196.083699 48.413112 
L 196.174186 47.69193 
L 196.210381 47.69193 
L 196.210381 47.601782 
L 196.318965 46.520008 
L 196.409453 46.42986 
L 196.518037 45.708678 
L 196.590427 45.708678 
L 196.590427 45.61853 
L 196.699011 44.987495 
L 196.735206 44.987495 
L 196.735206 44.897347 
L 196.825693 43.905721 
L 196.879986 43.815573 
L 196.98857 42.914095 
L 197.024765 42.823947 
L 197.115252 42.192912 
L 197.205739 42.102764 
L 197.314324 41.381582 
L 197.350519 41.291434 
L 197.459103 40.20966 
L 197.495298 40.119512 
L 197.603883 39.127886 
L 197.676272 39.127886 
L 197.676272 39.037738 
L 197.76676 38.226408 
L 197.821052 38.226408 
L 197.821052 38.13626 
L 197.911539 37.415077 
L 197.983929 37.32493 
L 198.074416 37.054486 
L 198.164903 36.964338 
L 198.273488 36.513599 
L 198.345877 36.423451 
L 198.436364 36.06286 
L 198.490657 36.06286 
L 198.490657 35.972712 
L 198.599241 35.25153 
L 198.617339 35.25153 
L 198.617339 35.161382 
L 198.707826 34.620495 
L 198.81641 34.530347 
L 198.8888 33.98946 
L 198.96119 33.98946 
L 198.96119 33.899312 
L 199.051677 33.087982 
L 199.486015 32.997834 
L 199.558405 32.456947 
L 199.739379 32.366799 
L 199.793671 32.186504 
L 199.866061 32.186504 
L 199.866061 32.096356 
L 199.866061 32.006208 
L 200.028938 31.91606 
L 200.08323 31.555469 
L 200.282302 31.465321 
L 200.372789 31.285025 
L 200.553763 31.194877 
L 200.644251 30.924434 
L 200.734738 30.834286 
L 200.843322 30.473695 
L 201.114784 30.473695 
L 201.114784 30.383547 
L 201.114784 30.293399 
L 202.001558 30.203251 
L 202.110142 29.932808 
L 202.254922 29.84266 
L 202.254922 29.752512 
L 202.453993 29.662364 
L 202.562578 29.391921 
L 203.141695 29.301773 
L 203.141695 29.211625 
L 203.376962 29.121477 
L 203.376962 29.03133 
L 204.372321 28.941182 
L 204.372321 28.851034 
L 205.512458 28.760886 
L 205.512458 28.670738 
L 205.512458 28.670738 
" clip-path="url(#padbd52e07a)" style="fill: none; stroke: #d7191c; stroke-width: 1.5; stroke-linecap: round"/>
   </g>
   <g id="line2d_11">
    <path d="M 49.603124 96.281609 
L 49.603124 96.142205 
L 49.729806 96.142205 
L 49.802195 95.863397 
L 50.001267 95.863397 
L 50.019364 95.584589 
L 50.345118 95.584589 
L 50.417508 95.305782 
L 50.61658 95.305782 
L 50.634677 95.026974 
L 50.743262 95.026974 
L 50.743262 94.88757 
L 50.888041 94.88757 
L 50.906138 94.469358 
L 51.014723 94.469358 
L 51.087113 93.911743 
L 51.1776 93.911743 
L 51.1776 93.772339 
L 51.449061 93.772339 
L 51.539548 93.354128 
L 51.648133 93.354128 
L 51.73862 92.517704 
L 51.865302 92.517704 
L 51.919594 92.099493 
L 51.991984 92.099493 
L 52.010081 91.820685 
L 52.408225 91.820685 
L 52.408225 91.681281 
L 52.661589 91.681281 
L 52.715881 91.26307 
L 52.878758 91.26307 
L 52.878758 91.123666 
L 53.059732 91.123666 
L 53.150219 90.705454 
L 53.276901 90.705454 
L 53.367389 90.287243 
L 53.403583 90.287243 
L 53.403583 90.147839 
L 53.71124 90.147839 
L 53.71124 90.008435 
L 54.018896 90.008435 
L 54.018896 89.869031 
L 54.290357 89.869031 
L 54.380844 89.45082 
L 54.453234 89.45082 
L 54.507526 89.032608 
L 54.778988 89.032608 
L 54.778988 88.893204 
L 54.941865 88.893204 
L 55.050449 88.474993 
L 55.086644 88.474993 
L 55.086644 88.335589 
L 55.213326 88.335589 
L 55.321911 87.63857 
L 55.358105 87.63857 
L 55.448593 87.220358 
L 55.502885 87.220358 
L 55.611469 86.523339 
L 55.629567 86.523339 
L 55.683859 85.826319 
L 55.774346 85.826319 
L 55.882931 84.989896 
L 55.901028 84.989896 
L 56.009613 84.153473 
L 56.045808 84.153473 
L 56.154392 83.31705 
L 56.190587 83.31705 
L 56.299172 82.620031 
L 56.317269 82.620031 
L 56.425854 81.783608 
L 56.480146 81.783608 
L 56.570633 81.086588 
L 56.606828 81.086588 
L 56.715413 79.971357 
L 56.751607 79.971357 
L 56.860192 78.716723 
L 56.878289 78.716723 
L 56.878289 78.437915 
L 57.004971 78.437915 
L 57.041166 77.740896 
L 57.149751 77.740896 
L 57.185946 77.462088 
L 57.312628 77.462088 
L 57.385017 77.043876 
L 57.511699 77.043876 
L 57.565992 76.486261 
L 57.638381 76.486261 
L 57.674576 75.649838 
L 57.783161 75.649838 
L 57.891745 74.813415 
L 57.946038 74.813415 
L 58.036525 73.55878 
L 58.07272 73.55878 
L 58.181304 73.001165 
L 58.199402 73.001165 
L 58.289889 72.722357 
L 58.326084 72.722357 
L 58.434668 71.74653 
L 58.525155 71.74653 
L 58.615642 71.467722 
L 58.651837 71.467722 
L 58.724227 71.049511 
L 58.796617 71.049511 
L 58.814714 70.631299 
L 58.923299 70.631299 
L 58.977591 70.352491 
L 59.068078 70.352491 
L 59.12237 69.794876 
L 59.230955 69.794876 
L 59.321442 69.376664 
L 59.538611 69.376664 
L 59.538611 69.23726 
L 59.683391 69.23726 
L 59.683391 68.958453 
L 59.810073 68.958453 
L 59.810073 68.819049 
L 59.972949 68.819049 
L 60.027242 68.400837 
L 60.099631 68.400837 
L 60.153924 68.12203 
L 60.244411 68.12203 
L 60.244411 67.982626 
L 60.552067 67.982626 
L 60.552067 67.843222 
L 60.877821 67.843222 
L 60.986405 67.42501 
L 61.040698 67.42501 
L 61.149282 67.006799 
L 61.330256 67.006799 
L 61.438841 65.333952 
L 61.456938 65.333952 
L 61.493133 64.915741 
L 61.601718 64.915741 
L 61.65601 64.636933 
L 61.746497 64.636933 
L 61.764595 64.218722 
L 61.873179 64.218722 
L 61.927472 63.521702 
L 62.488492 63.521702 
L 62.488492 63.382298 
L 62.615174 63.382298 
L 62.687563 63.103491 
L 62.832343 63.103491 
L 62.92283 62.685279 
L 62.99522 62.685279 
L 63.103804 62.267068 
L 63.121902 62.267068 
L 63.121902 61.98826 
L 63.266681 61.98826 
L 63.357168 61.430645 
L 63.48385 61.430645 
L 63.48385 61.151837 
L 63.773409 61.151837 
L 63.881994 60.17601 
L 63.900091 60.17601 
L 63.972481 59.478991 
L 64.099163 59.478991 
L 64.171553 58.503164 
L 64.225845 58.503164 
L 64.225845 58.36376 
L 64.443014 58.36376 
L 64.443014 58.224356 
L 64.605891 58.224356 
L 64.605891 57.945548 
L 64.75067 57.945548 
L 64.859255 57.248529 
L 64.931644 57.248529 
L 64.931644 57.109125 
L 65.094521 57.109125 
L 65.166911 56.830317 
L 65.275496 56.830317 
L 65.275496 56.690913 
L 65.546957 56.690913 
L 65.546957 56.412106 
L 66.053685 56.412106 
L 66.162269 55.715086 
L 66.234659 55.715086 
L 66.325146 55.436279 
L 66.379439 55.436279 
L 66.379439 55.296875 
L 66.922361 55.296875 
L 66.922361 55.157471 
L 67.175725 55.157471 
L 67.193823 54.739259 
L 67.573869 54.739259 
L 67.682453 54.321048 
L 67.700551 54.321048 
L 67.791038 53.902836 
L 67.972012 53.902836 
L 68.080597 53.066413 
L 68.116792 53.066413 
L 68.225376 51.532971 
L 68.279668 51.532971 
L 68.370156 50.975355 
L 68.40635 50.975355 
L 68.514935 49.860124 
L 68.533032 49.860124 
L 68.641617 48.744894 
L 68.677812 48.744894 
L 68.768299 48.187278 
L 68.804494 48.187278 
L 68.894981 47.629663 
L 68.931176 47.629663 
L 69.021663 46.653836 
L 69.075955 46.653836 
L 69.18454 44.980989 
L 69.220735 44.980989 
L 69.311222 44.28397 
L 69.365514 44.28397 
L 69.456001 43.726355 
L 69.492196 43.726355 
L 69.600781 42.47172 
L 69.636976 42.47172 
L 69.691268 41.914105 
L 69.763657 41.914105 
L 69.872242 41.217085 
L 69.908437 41.217085 
L 69.962729 40.798874 
L 70.107509 40.798874 
L 70.107509 40.65947 
L 70.596139 40.65947 
L 70.596139 40.520066 
L 70.795211 40.520066 
L 70.813308 40.241258 
L 71.030477 40.241258 
L 71.030477 40.101854 
L 71.247647 40.101854 
L 71.301939 39.823047 
L 71.374329 39.823047 
L 71.482913 39.265431 
L 71.700082 39.265431 
L 71.754374 38.986624 
L 71.899154 38.986624 
L 71.989641 38.1502 
L 72.025836 38.1502 
L 72.098226 37.313777 
L 72.152518 37.313777 
L 72.152518 37.174373 
L 72.2792 37.174373 
L 72.387784 36.756162 
L 72.405882 36.756162 
L 72.442077 36.33795 
L 72.532564 36.33795 
L 72.604954 35.780335 
L 72.659246 35.780335 
L 72.749733 34.943912 
L 72.804025 34.943912 
L 72.91261 33.968085 
L 72.948805 33.968085 
L 72.985 33.689277 
L 73.346948 33.689277 
L 73.437435 33.131662 
L 73.781286 33.131662 
L 73.853676 32.574046 
L 73.907968 32.574046 
L 74.016553 32.155835 
L 74.088943 32.155835 
L 74.17943 31.458815 
L 74.233722 31.458815 
L 74.233722 31.319412 
L 74.432794 31.319412 
L 74.541378 30.482988 
L 74.559476 30.482988 
L 74.649963 30.204181 
L 74.704255 30.204181 
L 74.81284 29.646565 
L 74.939522 29.646565 
L 74.993814 29.367758 
L 75.084301 29.367758 
L 75.084301 29.228354 
L 75.735808 29.228354 
L 75.735808 28.949546 
L 77.961792 28.949546 
L 77.961792 28.810142 
L 78.504715 28.810142 
L 78.504715 28.670738 
L 78.504715 28.670738 
" clip-path="url(#padbd52e07a)" style="fill: none; stroke-dasharray: 1.5,1.5; stroke-dashoffset: 0; stroke: #fdae61; stroke-width: 1.5"/>
   </g>
   <g id="line2d_12">
    <path d="M 205.874407 96.281609 
L 205.874407 96.113422 
L 206.037284 96.113422 
L 206.037284 95.945236 
L 206.41733 95.945236 
L 206.41733 95.77705 
L 206.724986 95.77705 
L 206.797376 94.936119 
L 206.924058 94.936119 
L 206.924058 94.767932 
L 207.105032 94.767932 
L 207.213617 93.927001 
L 207.249811 93.927001 
L 207.304104 93.590629 
L 207.593663 93.590629 
L 207.666052 93.254256 
L 207.792734 93.254256 
L 207.792734 93.08607 
L 208.064196 93.08607 
L 208.064196 92.917884 
L 208.480436 92.917884 
L 208.552826 92.413325 
L 208.643313 92.413325 
L 208.661411 92.076952 
L 208.932872 92.076952 
L 209.041457 91.74058 
L 209.077652 91.74058 
L 209.077652 91.572394 
L 209.331016 91.572394 
L 209.385308 91.067835 
L 209.765354 91.067835 
L 209.783451 90.563276 
L 209.910133 90.563276 
L 209.928231 90.058718 
L 210.07301 90.058718 
L 210.181595 89.722345 
L 210.199692 89.722345 
L 210.235887 89.385973 
L 210.380666 89.385973 
L 210.380666 89.217786 
L 210.815005 89.217786 
L 210.815005 89.0496 
L 211.050271 89.0496 
L 211.050271 88.881414 
L 211.285538 88.881414 
L 211.285538 88.713228 
L 211.90085 88.713228 
L 211.90085 88.545041 
L 213.402937 88.545041 
L 213.402937 88.376855 
L 219.899913 88.376855 
L 219.899913 88.208669 
L 220.460933 88.208669 
L 220.460933 88.040483 
L 220.605713 88.040483 
L 220.605713 87.872296 
L 220.822882 87.872296 
L 220.822882 87.70411 
L 221.076246 87.70411 
L 221.076246 87.535924 
L 221.275317 87.535924 
L 221.275317 87.367738 
L 221.474389 87.367738 
L 221.582974 86.694993 
L 221.601071 86.694993 
L 221.691558 85.854061 
L 221.727753 85.854061 
L 221.836338 85.181316 
L 221.872533 85.181316 
L 221.89063 84.508571 
L 222.035409 84.508571 
L 222.143994 84.004013 
L 222.162091 84.004013 
L 222.234481 83.66764 
L 222.306871 83.66764 
L 222.415455 82.826709 
L 222.52404 82.826709 
L 222.542137 82.32215 
L 222.777404 82.32215 
L 222.885988 81.817592 
L 223.066963 81.817592 
L 223.15745 81.144847 
L 223.284132 81.144847 
L 223.320327 80.808474 
L 223.483204 80.808474 
L 223.573691 80.135729 
L 223.682275 80.135729 
L 223.772762 79.126612 
L 223.827055 79.126612 
L 223.935639 78.28568 
L 223.971834 78.28568 
L 224.062321 77.444749 
L 224.116614 77.444749 
L 224.225198 76.94019 
L 224.243296 76.94019 
L 224.35188 76.435632 
L 224.388075 76.435632 
L 224.49666 75.762887 
L 224.514757 75.762887 
L 224.623341 74.249211 
L 224.641439 74.249211 
L 224.750023 72.567348 
L 224.768121 72.567348 
L 224.876705 70.549113 
L 224.930998 70.549113 
L 225.039582 69.035437 
L 225.075777 69.035437 
L 225.184362 67.017202 
L 225.202459 67.017202 
L 225.311044 66.68083 
L 225.329141 66.68083 
L 225.437726 66.008085 
L 225.455823 66.008085 
L 225.564408 64.998967 
L 225.582505 64.998967 
L 225.69109 63.317105 
L 225.709187 63.317105 
L 225.817772 61.971615 
L 225.853967 61.971615 
L 225.962551 60.626125 
L 226.016843 60.626125 
L 226.125428 59.112449 
L 226.143525 59.112449 
L 226.25211 58.271517 
L 226.306402 58.271517 
L 226.414987 57.094214 
L 226.433084 57.094214 
L 226.541669 55.580537 
L 226.559766 55.580537 
L 226.668351 53.898675 
L 226.704546 53.898675 
L 226.776935 52.889557 
L 226.88552 52.889557 
L 226.95791 52.384999 
L 227.012202 52.384999 
L 227.120786 50.53495 
L 227.156981 50.53495 
L 227.247468 49.021274 
L 227.319858 49.021274 
L 227.410345 48.180343 
L 227.44654 48.180343 
L 227.555125 46.834853 
L 227.59132 46.834853 
L 227.627514 46.49848 
L 227.718002 46.49848 
L 227.718002 46.330294 
L 227.844684 46.330294 
L 227.844684 46.162108 
L 228.134242 46.162108 
L 228.224729 45.657549 
L 228.260924 45.657549 
L 228.260924 45.321176 
L 228.441899 45.321176 
L 228.459996 44.984804 
L 228.64097 44.984804 
L 228.749555 44.480245 
L 228.767652 44.480245 
L 228.803847 43.8075 
L 228.894334 43.8075 
L 228.984821 42.293824 
L 229.021016 42.293824 
L 229.129601 41.452893 
L 229.165796 41.452893 
L 229.220088 41.11652 
L 229.382965 41.11652 
L 229.491549 40.443775 
L 229.672524 40.443775 
L 229.763011 39.77103 
L 230.088764 39.77103 
L 230.197349 39.266472 
L 230.396421 39.266472 
L 230.505005 38.761913 
L 230.523103 38.761913 
L 230.61359 38.257354 
L 230.704077 38.257354 
L 230.776467 37.752795 
L 231.228902 37.752795 
L 231.301292 37.248237 
L 231.862312 37.248237 
L 231.862312 37.08005 
L 233.129132 37.08005 
L 233.129132 36.911864 
L 234.41405 36.911864 
L 234.41405 36.743678 
L 237.581099 36.743678 
L 237.599197 36.239119 
L 238.015438 36.239119 
L 238.015438 36.070933 
L 238.323094 36.070933 
L 238.413581 35.734561 
L 238.63075 35.734561 
L 238.666945 35.398188 
L 238.793627 35.398188 
L 238.793627 35.230002 
L 238.920309 35.230002 
L 238.992699 34.052698 
L 239.065088 34.052698 
L 239.173673 33.379953 
L 239.282257 33.379953 
L 239.372745 32.875394 
L 239.626109 32.875394 
L 239.644206 32.539022 
L 239.843278 32.539022 
L 239.933765 32.034463 
L 239.96996 32.034463 
L 239.96996 31.866277 
L 240.476688 31.866277 
L 240.585272 31.025346 
L 240.730052 31.025346 
L 240.838636 30.688973 
L 241.381559 30.688973 
L 241.381559 30.520787 
L 241.65302 30.520787 
L 241.671118 29.679856 
L 241.7978 29.679856 
L 241.7978 29.511669 
L 242.141651 29.511669 
L 242.141651 29.343483 
L 242.449307 29.343483 
L 242.449307 29.175297 
L 242.974133 29.175297 
L 242.974133 29.007111 
L 243.462763 29.007111 
L 243.462763 28.838924 
L 247.100346 28.838924 
L 247.100346 28.670738 
L 247.100346 28.670738 
" clip-path="url(#padbd52e07a)" style="fill: none; stroke-dasharray: 5.55,2.4; stroke-dashoffset: 0; stroke: #2b83ba; stroke-width: 1.5"/>
   </g>
   <g id="line2d_13">
    <path d="M 193.441475 96.281609 
L 193.441475 96.158456 
L 194.310151 96.158456 
L 194.400638 95.542692 
L 194.436833 95.542692 
L 194.473028 95.173234 
L 194.798782 95.173234 
L 194.798782 95.050081 
L 195.015951 95.050081 
L 195.015951 94.926928 
L 195.196925 94.926928 
L 195.196925 94.55747 
L 195.613166 94.55747 
L 195.703653 93.941706 
L 195.739848 93.941706 
L 195.848432 93.079637 
L 195.993212 93.079637 
L 196.029407 92.710178 
L 196.228478 92.710178 
L 196.300868 91.848109 
L 196.35516 91.848109 
L 196.391355 91.601803 
L 196.554232 91.601803 
L 196.644719 90.862887 
L 196.680914 90.862887 
L 196.699011 90.493428 
L 196.807596 90.493428 
L 196.916181 90.12397 
L 196.970473 90.12397 
L 197.079057 89.754512 
L 197.151447 89.754512 
L 197.151447 89.631359 
L 197.54959 89.631359 
L 197.658175 89.261901 
L 197.676272 89.261901 
L 197.784857 88.646137 
L 197.911539 88.646137 
L 197.947734 88.399831 
L 198.146806 88.399831 
L 198.237293 87.784068 
L 198.291585 87.784068 
L 198.40017 87.414609 
L 198.418267 87.414609 
L 198.526852 86.798845 
L 198.544949 86.798845 
L 198.653534 86.306234 
L 198.725923 86.306234 
L 198.834508 85.813623 
L 198.8888 85.813623 
L 198.979287 85.197859 
L 199.03358 85.197859 
L 199.142164 83.596873 
L 199.160262 83.596873 
L 199.268846 82.98111 
L 199.305041 82.98111 
L 199.395528 82.242193 
L 199.431723 82.242193 
L 199.504113 81.872735 
L 199.558405 81.872735 
L 199.630795 81.256971 
L 199.685087 81.256971 
L 199.757477 80.76436 
L 199.829866 80.76436 
L 199.866061 80.518054 
L 199.956548 80.518054 
L 200.065133 80.025443 
L 200.173717 80.025443 
L 200.173717 79.90229 
L 200.408984 79.90229 
L 200.408984 79.779138 
L 200.988102 79.779138 
L 200.988102 79.532832 
L 201.386245 79.532832 
L 201.386245 79.409679 
L 201.856778 79.409679 
L 201.929168 78.793915 
L 202.164434 78.793915 
L 202.200629 78.54761 
L 202.309214 78.54761 
L 202.345409 78.178152 
L 202.707357 78.178152 
L 202.707357 78.054999 
L 202.924526 78.054999 
L 202.924526 77.931846 
L 203.25028 77.931846 
L 203.304572 77.68554 
L 203.449352 77.68554 
L 203.521741 77.439235 
L 203.757008 77.439235 
L 203.847495 77.069777 
L 204.191346 77.069777 
L 204.191346 76.823471 
L 204.535197 76.823471 
L 204.625685 76.084554 
L 204.661879 76.084554 
L 204.770464 75.468791 
L 205.132412 75.468791 
L 205.132412 75.345638 
L 206.163966 75.345638 
L 206.27255 74.729874 
L 206.363038 74.729874 
L 206.363038 74.606721 
L 206.562109 74.606721 
L 206.562109 74.483568 
L 206.688791 74.483568 
L 206.797376 73.744652 
L 206.924058 73.744652 
L 207.032642 73.375194 
L 207.068837 73.375194 
L 207.123129 73.005735 
L 207.213617 73.005735 
L 207.304104 72.389971 
L 207.412688 72.389971 
L 207.521273 72.143666 
L 207.53937 72.143666 
L 207.61176 71.774208 
L 207.666052 71.774208 
L 207.756539 71.158444 
L 207.810832 71.158444 
L 207.919416 70.54268 
L 207.937514 70.54268 
L 208.046098 69.926916 
L 208.118488 69.926916 
L 208.154683 69.68061 
L 208.263267 69.68061 
L 208.335657 69.187999 
L 208.389949 69.187999 
L 208.480436 68.695388 
L 208.607118 68.695388 
L 208.715703 67.956472 
L 208.7338 67.956472 
L 208.824288 67.463861 
L 208.932872 67.463861 
L 208.969067 67.094402 
L 209.059554 67.094402 
L 209.113846 66.601791 
L 209.186236 66.601791 
L 209.222431 66.232333 
L 209.421503 66.232333 
L 209.530087 65.616569 
L 209.602477 65.616569 
L 209.620574 65.247111 
L 209.765354 65.247111 
L 209.765354 65.123958 
L 209.892036 65.123958 
L 210.00062 64.385041 
L 210.054913 64.385041 
L 210.1454 64.015583 
L 210.199692 64.015583 
L 210.290179 63.276666 
L 210.326374 63.276666 
L 210.416861 62.414597 
L 210.453056 62.414597 
L 210.561641 61.059917 
L 210.579738 61.059917 
L 210.688323 60.321 
L 210.742615 60.321 
L 210.833102 59.212625 
L 210.923589 59.212625 
L 211.032174 58.596861 
L 211.086466 58.596861 
L 211.176953 57.857945 
L 211.213148 57.857945 
L 211.303635 57.365334 
L 211.33983 57.365334 
L 211.448415 56.74957 
L 211.466512 56.74957 
L 211.538902 56.503264 
L 211.629389 56.503264 
L 211.737973 55.394889 
L 211.756071 55.394889 
L 211.864655 54.655973 
L 211.882753 54.655973 
L 211.97324 53.793903 
L 212.063727 53.793903 
L 212.154214 53.178139 
L 212.190409 53.178139 
L 212.262799 52.562375 
L 212.407578 52.562375 
L 212.498065 51.946612 
L 212.624747 51.946612 
L 212.624747 51.823459 
L 212.751429 51.823459 
L 212.751429 51.700306 
L 212.932404 51.700306 
L 212.968598 51.207695 
L 213.059086 51.207695 
L 213.16767 50.838237 
L 213.185768 50.838237 
L 213.185768 50.715084 
L 213.31245 50.715084 
L 213.384839 50.09932 
L 213.475326 50.09932 
L 213.475326 49.976167 
L 213.674398 49.976167 
L 213.674398 49.853015 
L 213.819177 49.853015 
L 213.927762 49.483556 
L 214.253516 49.483556 
L 214.344003 48.498334 
L 214.380198 48.498334 
L 214.452587 47.636265 
L 214.524977 47.636265 
L 214.615464 46.897348 
L 214.669757 46.897348 
L 214.760244 46.651043 
L 214.832633 46.651043 
L 214.905023 46.281584 
L 214.959315 46.281584 
L 215.031705 45.66582 
L 215.122192 45.66582 
L 215.176485 45.173209 
L 215.285069 45.173209 
L 215.285069 44.926904 
L 215.502238 44.926904 
L 215.610823 44.680598 
L 215.755602 44.680598 
L 215.864187 44.064834 
L 215.918479 44.064834 
L 216.027064 43.818529 
L 216.045161 43.818529 
L 216.135648 43.325918 
L 216.171843 43.325918 
L 216.208038 43.079612 
L 216.298525 43.079612 
L 216.298525 42.956459 
L 216.443304 42.956459 
L 216.443304 42.833307 
L 216.750961 42.833307 
L 216.841448 42.217543 
L 216.89574 42.217543 
L 216.89574 42.09439 
L 217.112909 42.09439 
L 217.203396 41.724932 
L 217.239591 41.724932 
L 217.293884 41.355473 
L 217.366273 41.355473 
L 217.420565 41.109168 
L 217.565345 41.109168 
L 217.565345 40.986015 
L 217.927293 40.986015 
L 217.981586 40.616557 
L 218.16256 40.616557 
L 218.253047 40.370251 
L 218.542606 40.370251 
L 218.614996 40.000793 
L 218.687385 40.000793 
L 218.777873 39.385029 
L 218.850262 39.385029 
L 218.940749 38.399807 
L 218.995042 38.399807 
L 219.085529 37.907196 
L 219.121724 37.907196 
L 219.194113 37.414585 
L 219.320795 37.414585 
L 219.35699 36.798821 
L 219.465575 36.798821 
L 219.574159 35.813599 
L 219.700841 35.813599 
L 219.809426 34.951529 
L 219.827523 34.951529 
L 219.936108 34.458918 
L 219.9904 34.458918 
L 220.098985 33.720002 
L 220.13518 33.720002 
L 220.225667 33.104238 
L 220.279959 33.104238 
L 220.334251 32.365321 
L 220.424738 32.365321 
L 220.533323 32.119016 
L 220.55142 32.119016 
L 220.641908 31.749557 
L 220.678102 31.749557 
L 220.678102 31.626405 
L 220.859077 31.626405 
L 220.949564 31.380099 
L 220.985759 31.380099 
L 221.076246 31.010641 
L 221.112441 31.010641 
L 221.148635 30.764335 
L 221.239123 30.764335 
L 221.347707 30.148571 
L 221.420097 30.148571 
L 221.420097 30.025419 
L 221.637266 30.025419 
L 221.637266 29.902266 
L 222.216384 29.902266 
L 222.234481 29.532808 
L 222.361163 29.532808 
L 222.361163 29.409655 
L 222.52404 29.409655 
L 222.614527 29.040197 
L 223.247937 29.040197 
L 223.247937 28.917044 
L 224.388075 28.917044 
L 224.388075 28.793891 
L 228.459996 28.793891 
L 228.459996 28.670738 
L 228.459996 28.670738 
" clip-path="url(#padbd52e07a)" style="fill: none; stroke-dasharray: 9.6,2.4,1.5,2.4; stroke-dashoffset: 0; stroke: #abd9e9; stroke-width: 1.5"/>
   </g>
   <g id="patch_3">
    <path d="M 39.728263 96.281609 
L 39.728263 28.670738 
" style="fill: none; stroke: #cccccc; stroke-width: 0.8; stroke-linejoin: miter; stroke-linecap: square"/>
   </g>
   <g id="patch_4">
    <path d="M 256.975207 96.281609 
L 256.975207 28.670738 
" style="fill: none; stroke: #cccccc; stroke-width: 0.8; stroke-linejoin: miter; stroke-linecap: square"/>
   </g>
   <g id="patch_5">
    <path d="M 39.728263 96.281609 
L 256.975207 96.281609 
" style="fill: none; stroke: #cccccc; stroke-width: 0.8; stroke-linejoin: miter; stroke-linecap: square"/>
   </g>
   <g id="patch_6">
    <path d="M 39.728263 28.670738 
L 256.975207 28.670738 
" style="fill: none; stroke: #cccccc; stroke-width: 0.8; stroke-linejoin: miter; stroke-linecap: square"/>
   </g>
  </g>
  <g id="axes_2">
   <g id="patch_7">
    <path d="M 267.775207 96.281609 
L 485.022152 96.281609 
L 485.022152 28.670738 
L 267.775207 28.670738 
z
" style="fill: #ffffff"/>
   </g>
   <g id="matplotlib.axis_3">
    <g id="xtick_7">
     <g id="line2d_14">
      <path d="M 289.278722 96.281609 
L 289.278722 28.670738 
" clip-path="url(#pbfd1c30b0b)" style="fill: none; stroke: #cccccc; stroke-opacity: 0.3; stroke-width: 0.8; stroke-linecap: round"/>
     </g>
     <g id="text_12">
      <!-- $\mathdefault{5000}$ -->
      <g style="fill: #262626" transform="translate(279.316051 110.143085) scale(0.1 -0.1)">
       <use xlink:href="#CMR17-35" transform="scale(0.996264)"/>
       <use xlink:href="#CMR17-30" transform="translate(45.690477 0) scale(0.996264)"/>
       <use xlink:href="#CMR17-30" transform="translate(91.380954 0) scale(0.996264)"/>
       <use xlink:href="#CMR17-30" transform="translate(137.071431 0) scale(0.996264)"/>
      </g>
     </g>
    </g>
    <g id="xtick_8">
     <g id="line2d_15">
      <path d="M 323.796748 96.281609 
L 323.796748 28.670738 
" clip-path="url(#pbfd1c30b0b)" style="fill: none; stroke: #cccccc; stroke-opacity: 0.3; stroke-width: 0.8; stroke-linecap: round"/>
     </g>
     <g id="text_13">
      <!-- $\mathdefault{7500}$ -->
      <g style="fill: #262626" transform="translate(313.834078 110.143085) scale(0.1 -0.1)">
       <defs>
        <path id="CMR17-37" d="M 2886 3941 
L 2886 4081 
L 1382 4081 
C 634 4081 621 4165 595 4288 
L 480 4288 
L 294 3094 
L 410 3094 
C 429 3215 474 3540 550 3661 
C 589 3712 1062 3712 1171 3712 
L 2579 3712 
L 1869 2661 
C 1395 1954 1069 999 1069 165 
C 1069 89 1069 -128 1299 -128 
C 1530 -128 1530 89 1530 171 
L 1530 465 
C 1530 1508 1709 2196 2003 2636 
L 2886 3941 
z
" transform="scale(0.015625)"/>
       </defs>
       <use xlink:href="#CMR17-37" transform="scale(0.996264)"/>
       <use xlink:href="#CMR17-35" transform="translate(45.690477 0) scale(0.996264)"/>
       <use xlink:href="#CMR17-30" transform="translate(91.380954 0) scale(0.996264)"/>
       <use xlink:href="#CMR17-30" transform="translate(137.071431 0) scale(0.996264)"/>
      </g>
     </g>
    </g>
    <g id="xtick_9">
     <g id="line2d_16">
      <path d="M 358.314775 96.281609 
L 358.314775 28.670738 
" clip-path="url(#pbfd1c30b0b)" style="fill: none; stroke: #cccccc; stroke-opacity: 0.3; stroke-width: 0.8; stroke-linecap: round"/>
     </g>
     <g id="text_14">
      <!-- $\mathdefault{10000}$ -->
      <g style="fill: #262626" transform="translate(345.861437 110.143085) scale(0.1 -0.1)">
       <use xlink:href="#CMR17-31" transform="scale(0.996264)"/>
       <use xlink:href="#CMR17-30" transform="translate(45.690477 0) scale(0.996264)"/>
       <use xlink:href="#CMR17-30" transform="translate(91.380954 0) scale(0.996264)"/>
       <use xlink:href="#CMR17-30" transform="translate(137.071431 0) scale(0.996264)"/>
       <use xlink:href="#CMR17-30" transform="translate(182.761908 0) scale(0.996264)"/>
      </g>
     </g>
    </g>
    <g id="xtick_10">
     <g id="line2d_17">
      <path d="M 392.832802 96.281609 
L 392.832802 28.670738 
" clip-path="url(#pbfd1c30b0b)" style="fill: none; stroke: #cccccc; stroke-opacity: 0.3; stroke-width: 0.8; stroke-linecap: round"/>
     </g>
     <g id="text_15">
      <!-- $\mathdefault{12500}$ -->
      <g style="fill: #262626" transform="translate(380.379463 110.143085) scale(0.1 -0.1)">
       <use xlink:href="#CMR17-31" transform="scale(0.996264)"/>
       <use xlink:href="#CMR17-32" transform="translate(45.690477 0) scale(0.996264)"/>
       <use xlink:href="#CMR17-35" transform="translate(91.380954 0) scale(0.996264)"/>
       <use xlink:href="#CMR17-30" transform="translate(137.071431 0) scale(0.996264)"/>
       <use xlink:href="#CMR17-30" transform="translate(182.761908 0) scale(0.996264)"/>
      </g>
     </g>
    </g>
    <g id="xtick_11">
     <g id="line2d_18">
      <path d="M 427.350828 96.281609 
L 427.350828 28.670738 
" clip-path="url(#pbfd1c30b0b)" style="fill: none; stroke: #cccccc; stroke-opacity: 0.3; stroke-width: 0.8; stroke-linecap: round"/>
     </g>
     <g id="text_16">
      <!-- $\mathdefault{15000}$ -->
      <g style="fill: #262626" transform="translate(414.89749 110.143085) scale(0.1 -0.1)">
       <use xlink:href="#CMR17-31" transform="scale(0.996264)"/>
       <use xlink:href="#CMR17-35" transform="translate(45.690477 0) scale(0.996264)"/>
       <use xlink:href="#CMR17-30" transform="translate(91.380954 0) scale(0.996264)"/>
       <use xlink:href="#CMR17-30" transform="translate(137.071431 0) scale(0.996264)"/>
       <use xlink:href="#CMR17-30" transform="translate(182.761908 0) scale(0.996264)"/>
      </g>
     </g>
    </g>
    <g id="xtick_12">
     <g id="line2d_19">
      <path d="M 461.868855 96.281609 
L 461.868855 28.670738 
" clip-path="url(#pbfd1c30b0b)" style="fill: none; stroke: #cccccc; stroke-opacity: 0.3; stroke-width: 0.8; stroke-linecap: round"/>
     </g>
     <g id="text_17">
      <!-- $\mathdefault{17500}$ -->
      <g style="fill: #262626" transform="translate(449.415517 110.143085) scale(0.1 -0.1)">
       <use xlink:href="#CMR17-31" transform="scale(0.996264)"/>
       <use xlink:href="#CMR17-37" transform="translate(45.690477 0) scale(0.996264)"/>
       <use xlink:href="#CMR17-35" transform="translate(91.380954 0) scale(0.996264)"/>
       <use xlink:href="#CMR17-30" transform="translate(137.071431 0) scale(0.996264)"/>
       <use xlink:href="#CMR17-30" transform="translate(182.761908 0) scale(0.996264)"/>
      </g>
     </g>
    </g>
    <g id="text_18">
     <!-- Latency (ms). Size: 10MB -->
     <g style="fill: #262626" transform="translate(318.546472 123.549948) scale(0.1 -0.1)">
      <defs>
       <path id="SFRM3583-4d" d="M 474 4365 
L 474 4224 
L 582 4224 
C 736 4224 890 4205 890 3987 
C 890 3937 883 3886 883 3841 
L 883 799 
C 883 735 890 671 890 601 
C 890 397 832 141 474 141 
L 474 0 
L 1382 0 
L 1382 141 
C 1005 141 973 404 973 627 
L 979 4230 
C 1005 4096 1069 3961 1114 3834 
C 1562 2640 1965 1432 2394 231 
C 2419 154 2458 0 2515 0 
C 2592 0 2790 665 2906 991 
C 3283 2020 3642 3068 4013 4110 
C 4026 4154 4051 4199 4058 4250 
L 4064 365 
C 4064 192 3994 141 3654 141 
L 3654 0 
L 4774 0 
L 4774 141 
L 4666 141 
C 4499 141 4365 160 4365 410 
L 4365 3809 
C 4365 3854 4358 3905 4358 3955 
C 4358 4211 4506 4224 4774 4224 
L 4774 4365 
L 4096 4365 
L 4032 4352 
L 3917 4064 
L 2624 422 
L 1331 4064 
L 1216 4352 
L 1152 4365 
L 474 4365 
z
" transform="scale(0.015625)"/>
      </defs>
      <use xlink:href="#SFRM3583-4c" transform="scale(0.996264)"/>
      <use xlink:href="#SFRM3583-61" transform="translate(55.709683 0) scale(0.996264)"/>
      <use xlink:href="#SFRM3583-74" transform="translate(100.28815 0) scale(0.996264)"/>
      <use xlink:href="#SFRM3583-65" transform="translate(134.946496 0) scale(0.996264)"/>
      <use xlink:href="#SFRM3583-6e" transform="translate(174.564895 0) scale(0.996264)"/>
      <use xlink:href="#SFRM3583-63" transform="translate(224.103323 0) scale(0.996264)"/>
      <use xlink:href="#SFRM3583-79" transform="translate(263.721722 0) scale(0.996264)"/>
      <use xlink:href="#SFRM3583-28" transform="translate(340.478455 0) scale(0.996264)"/>
      <use xlink:href="#SFRM3583-6d" transform="translate(375.136801 0) scale(0.996264)"/>
      <use xlink:href="#SFRM3583-73" transform="translate(449.475417 0) scale(0.996264)"/>
      <use xlink:href="#SFRM3583-29" transform="translate(484.629812 0) scale(0.996264)"/>
      <use xlink:href="#SFRM3583-2e" transform="translate(519.288158 0) scale(0.996264)"/>
      <use xlink:href="#SFRM3583-53" transform="translate(583.644798 0) scale(0.996264)"/>
      <use xlink:href="#SFRM3583-69" transform="translate(633.183226 0) scale(0.996264)"/>
      <use xlink:href="#SFRM3583-7a" transform="translate(657.921558 0) scale(0.996264)"/>
      <use xlink:href="#SFRM3583-65" transform="translate(697.539956 0) scale(0.996264)"/>
      <use xlink:href="#SFRM3583-3a" transform="translate(737.158355 0) scale(0.996264)"/>
      <use xlink:href="#SFRM3583-31" transform="translate(801.514994 0) scale(0.996264)"/>
      <use xlink:href="#SFRM3583-30" transform="translate(846.093461 0) scale(0.996264)"/>
      <use xlink:href="#SFRM3583-4d" transform="translate(890.671928 0) scale(0.996264)"/>
      <use xlink:href="#SFRM3583-42" transform="translate(972.393001 0) scale(0.996264)"/>
     </g>
    </g>
   </g>
   <g id="matplotlib.axis_4">
    <g id="ytick_4">
     <g id="line2d_20">
      <path d="M 267.775207 96.281609 
L 485.022152 96.281609 
" clip-path="url(#pbfd1c30b0b)" style="fill: none; stroke: #cccccc; stroke-opacity: 0.3; stroke-width: 0.8; stroke-linecap: round"/>
     </g>
    </g>
    <g id="ytick_5">
     <g id="line2d_21">
      <path d="M 267.775207 62.476173 
L 485.022152 62.476173 
" clip-path="url(#pbfd1c30b0b)" style="fill: none; stroke: #cccccc; stroke-opacity: 0.3; stroke-width: 0.8; stroke-linecap: round"/>
     </g>
    </g>
    <g id="ytick_6">
     <g id="line2d_22">
      <path d="M 267.775207 28.670738 
L 485.022152 28.670738 
" clip-path="url(#pbfd1c30b0b)" style="fill: none; stroke: #cccccc; stroke-opacity: 0.3; stroke-width: 0.8; stroke-linecap: round"/>
     </g>
    </g>
   </g>
   <g id="line2d_23">
    <path d="M 277.843065 96.281609 
L 277.889651 96.101313 
L 277.975518 96.011165 
L 278.00987 95.470278 
L 278.126458 95.38013 
L 278.236529 90.512148 
L 278.244565 90.422 
L 278.291896 89.520522 
L 397.653341 89.430374 
L 397.705131 89.069782 
L 397.818447 88.979635 
L 397.92751 83.480617 
L 397.937051 83.390469 
L 397.974358 82.759435 
L 401.043149 82.669287 
L 401.152405 81.767808 
L 401.170976 81.677661 
L 401.280937 80.055 
L 401.282428 79.964852 
L 401.393535 72.662878 
L 401.395978 72.57273 
L 401.462432 69.23726 
L 406.318111 69.147113 
L 406.378656 68.696374 
L 406.471109 68.606226 
L 406.576734 63.557947 
L 406.583582 63.4678 
L 406.613792 62.476173 
L 410.852965 62.386026 
L 410.915222 61.845139 
L 411.032749 61.754991 
L 411.136468 56.526417 
L 411.148605 56.436269 
L 411.168998 55.715086 
L 422.736831 55.624939 
L 422.776651 55.084052 
L 422.90064 54.993904 
L 423.005727 48.953999 
L 424.162453 48.863852 
L 424.264102 48.413112 
L 424.354222 48.322965 
L 424.462746 47.060895 
L 424.470451 46.970747 
L 424.572417 42.192912 
L 428.131654 42.102764 
L 428.176789 41.561878 
L 428.308538 41.47173 
L 428.415185 35.431825 
L 474.838824 35.341677 
L 474.851457 34.981086 
L 475.007078 34.890938 
L 475.114112 29.211625 
L 475.119303 29.121477 
L 475.147291 28.670738 
L 475.147291 28.670738 
" clip-path="url(#pbfd1c30b0b)" style="fill: none; stroke: #d7191c; stroke-width: 1.5; stroke-linecap: round"/>
   </g>
   <g id="line2d_24">
    <path d="M 277.650068 96.281609 
L 277.71383 89.428265 
L 397.324329 89.428265 
L 397.39701 82.706717 
L 400.737278 82.706717 
L 400.847832 75.062603 
L 400.848481 75.062603 
L 400.935107 69.395415 
L 405.974781 69.395415 
L 406.085183 63.201046 
L 406.087655 63.201046 
L 406.090886 62.673866 
L 410.496891 62.673866 
L 410.56931 56.611293 
L 410.609972 56.611293 
L 410.620714 56.084113 
L 422.414322 56.084113 
L 422.498574 48.967179 
L 423.951438 48.967179 
L 424.012769 42.24563 
L 427.762642 42.24563 
L 427.865754 35.787672 
L 427.876745 35.787672 
L 427.880404 35.524082 
L 474.50288 35.524082 
L 474.576556 28.670738 
L 474.576556 28.670738 
" clip-path="url(#pbfd1c30b0b)" style="fill: none; stroke-dasharray: 1.5,1.5; stroke-dashoffset: 0; stroke: #fdae61; stroke-width: 1.5"/>
   </g>
   <g id="line2d_25">
    <path d="M 277.783791 96.281609 
L 277.879171 92.547287 
L 277.923686 92.547287 
L 277.967772 91.564571 
L 278.063235 91.564571 
L 278.089938 88.812966 
L 397.439136 88.812966 
L 397.523056 87.437163 
L 397.566728 87.437163 
L 397.676468 85.275188 
L 397.680375 85.275188 
L 397.772497 79.182348 
L 400.853148 79.182348 
L 400.963592 77.413459 
L 400.966809 77.413459 
L 401.075554 73.286051 
L 401.083121 73.286051 
L 401.178819 64.834692 
L 406.115642 64.834692 
L 406.197422 60.903828 
L 406.258616 60.903828 
L 406.27651 60.117655 
L 410.656985 60.117655 
L 410.72986 56.579877 
L 410.812524 56.579877 
L 410.827767 55.400617 
L 422.540244 55.400617 
L 422.635873 52.452469 
L 422.708761 52.452469 
L 422.722485 51.666296 
L 424.062392 51.666296 
L 424.1504 49.700864 
L 424.176606 49.700864 
L 424.283888 47.145802 
L 424.310756 47.145802 
L 424.377224 42.035678 
L 427.932843 42.035678 
L 428.033374 40.266789 
L 428.051848 40.266789 
L 428.161077 39.087529 
L 428.164045 39.087529 
L 428.253944 32.40506 
L 474.632475 32.40506 
L 474.7385 29.653454 
L 474.745225 29.653454 
L 474.83192 28.670738 
L 474.83192 28.670738 
" clip-path="url(#pbfd1c30b0b)" style="fill: none; stroke-dasharray: 5.55,2.4; stroke-dashoffset: 0; stroke: #2b83ba; stroke-width: 1.5"/>
   </g>
   <g id="line2d_26">
    <path d="M 277.769597 96.281609 
L 277.860504 89.533254 
L 397.424679 89.533254 
L 397.524271 82.7849 
L 400.849075 82.7849 
L 400.95887 74.635944 
L 400.961852 74.635944 
L 401.024274 71.32543 
L 402.29034 71.32543 
L 402.327537 69.797501 
L 402.46786 69.797501 
L 402.472968 69.542846 
L 402.638821 69.542846 
L 402.638821 69.415519 
L 406.088953 69.415519 
L 406.199617 63.431129 
L 406.200142 63.431129 
L 406.204478 62.667165 
L 410.641949 62.667165 
L 410.753001 56.173465 
L 410.753843 56.173465 
L 410.753843 56.046138 
L 422.527072 56.046138 
L 422.620823 49.170456 
L 424.058444 49.170456 
L 424.135833 42.422102 
L 427.919948 42.422102 
L 428.005732 35.673747 
L 474.618806 35.673747 
L 474.701014 30.58065 
L 474.754655 30.58065 
L 474.778251 28.670738 
L 474.778251 28.670738 
" clip-path="url(#pbfd1c30b0b)" style="fill: none; stroke-dasharray: 9.6,2.4,1.5,2.4; stroke-dashoffset: 0; stroke: #abd9e9; stroke-width: 1.5"/>
   </g>
   <g id="patch_8">
    <path d="M 267.775207 96.281609 
L 267.775207 28.670738 
" style="fill: none; stroke: #cccccc; stroke-width: 0.8; stroke-linejoin: miter; stroke-linecap: square"/>
   </g>
   <g id="patch_9">
    <path d="M 485.022152 96.281609 
L 485.022152 28.670738 
" style="fill: none; stroke: #cccccc; stroke-width: 0.8; stroke-linejoin: miter; stroke-linecap: square"/>
   </g>
   <g id="patch_10">
    <path d="M 267.775207 96.281609 
L 485.022152 96.281609 
" style="fill: none; stroke: #cccccc; stroke-width: 0.8; stroke-linejoin: miter; stroke-linecap: square"/>
   </g>
   <g id="patch_11">
    <path d="M 267.775207 28.670738 
L 485.022152 28.670738 
" style="fill: none; stroke: #cccccc; stroke-width: 0.8; stroke-linejoin: miter; stroke-linecap: square"/>
   </g>
  </g>
  <g id="legend_1">
   <g id="patch_12">
    <path d="M 100.368922 24.136707 
L 386.871894 24.136707 
Q 388.871894 24.136707 388.871894 22.136707 
L 388.871894 9.2 
Q 388.871894 7.2 386.871894 7.2 
L 100.368922 7.2 
Q 98.368922 7.2 98.368922 9.2 
L 98.368922 22.136707 
Q 98.368922 24.136707 100.368922 24.136707 
z
" style="fill: #ffffff; opacity: 0.8; stroke: #cccccc; stroke-linejoin: miter"/>
   </g>
   <g id="line2d_27">
    <path d="M 102.368922 14.7 
L 112.368922 14.7 
L 112.368922 14.7 
L 122.368922 14.7 
L 122.368922 14.7 
" style="fill: none; stroke: #d7191c; stroke-width: 1.5; stroke-linecap: round"/>
   </g>
   <g id="text_19">
    <!-- Lyon -->
    <g style="fill: #262626" transform="translate(130.368922 18.2) scale(0.1 -0.1)">
     <defs>
      <path id="SFRM3583-6f" d="M 1350 2816 
C 614 2726 237 2042 237 1376 
C 237 698 685 -32 1440 -32 
L 1504 -32 
C 2240 58 2624 736 2624 1382 
C 2624 2035 2182 2822 1440 2822 
C 1408 2822 1382 2816 1350 2816 
z
M 563 1274 
L 563 1376 
C 563 1856 621 2395 1114 2663 
C 1197 2702 1293 2734 1389 2734 
L 1434 2734 
C 2054 2734 2298 2012 2298 1495 
C 2298 990 2246 269 1606 77 
C 1549 64 1491 51 1434 51 
C 960 51 653 525 595 979 
C 576 1075 576 1178 563 1274 
z
" transform="scale(0.015625)"/>
     </defs>
     <use xlink:href="#SFRM3583-4c" transform="scale(0.996264)"/>
     <use xlink:href="#SFRM3583-79" transform="translate(55.709683 0) scale(0.996264)"/>
     <use xlink:href="#SFRM3583-6f" transform="translate(100.288135 0) scale(0.996264)"/>
     <use xlink:href="#SFRM3583-6e" transform="translate(144.866601 0) scale(0.996264)"/>
    </g>
   </g>
   <g id="line2d_28">
    <path d="M 172.087709 14.7 
L 182.087709 14.7 
L 182.087709 14.7 
L 192.087709 14.7 
L 192.087709 14.7 
" style="fill: none; stroke-dasharray: 1.5,1.5; stroke-dashoffset: 0; stroke: #fdae61; stroke-width: 1.5"/>
   </g>
   <g id="text_20">
    <!-- Nancy -->
    <g style="fill: #262626" transform="translate(200.087709 18.2) scale(0.1 -0.1)">
     <defs>
      <path id="SFRM3583-4e" d="M 467 4365 
L 467 4224 
L 877 4192 
L 877 627 
C 877 423 864 141 467 141 
L 467 0 
L 1376 0 
L 1376 141 
C 998 141 966 404 966 627 
L 966 4135 
C 1069 4033 1126 3892 1197 3771 
C 1741 2844 2272 1898 2797 953 
L 3219 205 
C 3251 148 3309 0 3373 0 
C 3418 0 3418 39 3418 64 
L 3418 3751 
C 3418 3955 3450 4224 3827 4224 
L 3827 4365 
L 2918 4365 
L 2918 4224 
C 3270 4224 3328 3987 3328 3764 
L 3328 627 
L 1203 4352 
L 1126 4365 
L 467 4365 
z
" transform="scale(0.015625)"/>
     </defs>
     <use xlink:href="#SFRM3583-4e" transform="scale(0.996264)"/>
     <use xlink:href="#SFRM3583-61" transform="translate(66.840991 0) scale(0.996264)"/>
     <use xlink:href="#SFRM3583-6e" transform="translate(111.419457 0) scale(0.996264)"/>
     <use xlink:href="#SFRM3583-63" transform="translate(160.957886 0) scale(0.996264)"/>
     <use xlink:href="#SFRM3583-79" transform="translate(200.576284 0) scale(0.996264)"/>
    </g>
   </g>
   <g id="line2d_29">
    <path d="M 247.754952 14.7 
L 257.754952 14.7 
L 257.754952 14.7 
L 267.754952 14.7 
L 267.754952 14.7 
" style="fill: none; stroke-dasharray: 5.55,2.4; stroke-dashoffset: 0; stroke: #2b83ba; stroke-width: 1.5"/>
   </g>
   <g id="text_21">
    <!-- Nantes -->
    <g style="fill: #262626" transform="translate(275.754952 18.2) scale(0.1 -0.1)">
     <use xlink:href="#SFRM3583-4e" transform="scale(0.996264)"/>
     <use xlink:href="#SFRM3583-61" transform="translate(66.840991 0) scale(0.996264)"/>
     <use xlink:href="#SFRM3583-6e" transform="translate(111.419457 0) scale(0.996264)"/>
     <use xlink:href="#SFRM3583-74" transform="translate(158.477897 0) scale(0.996264)"/>
     <use xlink:href="#SFRM3583-65" transform="translate(193.136243 0) scale(0.996264)"/>
     <use xlink:href="#SFRM3583-73" transform="translate(232.754642 0) scale(0.996264)"/>
    </g>
   </g>
   <g id="line2d_30">
    <path d="M 325.69091 14.7 
L 335.69091 14.7 
L 335.69091 14.7 
L 345.69091 14.7 
L 345.69091 14.7 
" style="fill: none; stroke-dasharray: 9.6,2.4,1.5,2.4; stroke-dashoffset: 0; stroke: #abd9e9; stroke-width: 1.5"/>
   </g>
   <g id="text_22">
    <!-- Rennes -->
    <g style="fill: #262626" transform="translate(353.69091 18.2) scale(0.1 -0.1)">
     <defs>
      <path id="SFRM3583-52" d="M 467 4352 
L 467 4237 
L 576 4237 
C 742 4237 877 4218 877 3968 
L 877 410 
C 877 160 768 141 467 141 
L 467 0 
L 1594 0 
L 1594 141 
L 1485 141 
C 1325 141 1184 160 1184 399 
L 1184 2164 
L 1658 2164 
C 1747 2164 1837 2164 1926 2164 
C 2368 2164 2874 1934 2931 1378 
L 2931 861 
C 2931 532 2970 -76 3712 -76 
C 4019 -76 4179 216 4205 495 
L 4205 527 
C 4205 554 4198 586 4166 586 
C 4122 586 4115 528 4115 482 
L 4115 457 
C 4090 242 3955 0 3725 0 
C 3347 0 3309 474 3290 772 
C 3238 1410 3251 1990 2381 2196 
C 2810 2331 3206 2440 3437 2929 
C 3475 3026 3501 3135 3501 3245 
C 3501 3972 2739 4352 2086 4352 
L 467 4352 
z
M 1184 2240 
L 1184 4059 
C 1184 4173 1235 4237 1357 4237 
L 1907 4237 
C 2483 4237 3142 3988 3142 3235 
C 3142 2693 2758 2374 2259 2265 
C 2099 2240 1933 2240 1773 2240 
L 1184 2240 
z
" transform="scale(0.015625)"/>
     </defs>
     <use xlink:href="#SFRM3583-52" transform="scale(0.996264)"/>
     <use xlink:href="#SFRM3583-65" transform="translate(65.629789 0) scale(0.996264)"/>
     <use xlink:href="#SFRM3583-6e" transform="translate(105.248187 0) scale(0.996264)"/>
     <use xlink:href="#SFRM3583-6e" transform="translate(154.786616 0) scale(0.996264)"/>
     <use xlink:href="#SFRM3583-65" transform="translate(204.325044 0) scale(0.996264)"/>
     <use xlink:href="#SFRM3583-73" transform="translate(243.943443 0) scale(0.996264)"/>
    </g>
   </g>
  </g>
 </g>
 <defs>
  <clipPath id="padbd52e07a">
   <rect x="39.728263" y="28.670738" width="217.246945" height="67.61087"/>
  </clipPath>
  <clipPath id="pbfd1c30b0b">
   <rect x="267.775207" y="28.670738" width="217.246945" height="67.61087"/>
  </clipPath>
 </defs>
</svg>
